# This file uses centimeters as units for non-parametric coordinates.

v -12.000000 -12.000000 48.000000
v 12.000000 -12.000000 48.000000
v -12.000000 12.000000 48.000000
v 12.000000 12.000000 48.000000
v -12.000000 12.000000 -48.000000
v 12.000000 12.000000 -48.000000
v -12.000000 -12.000000 -48.000000
v 12.000000 -12.000000 -48.000000
vt 0.719678 0.479289
vt 0.988321 0.479289
vt 0.988321 0.747932
vt 0.719678 0.747932
vt 0.719678 0.472825
vt 0.988321 0.472825
vt 0.988321 0.204182
vt 0.719678 0.204182
vt 0.530370 0.120941
vt 0.704411 0.120941
vt 0.704411 0.808052
vt 0.530370 0.808052
vt 0.180294 0.122597
vt 0.180657 0.808679
vt 0.017579 0.808766
vt 0.017215 0.122683
vt 0.347734 0.122508
vt 0.348098 0.808591
vt 0.183972 0.808678
vt 0.183608 0.122595
vt 0.352501 0.122979
vt 0.526663 0.122979
vt 0.526663 0.809061
vt 0.352501 0.809061
f 1/1 2/2 4/3 3/4
f 3/9 4/10 6/11 5/12
f 5/5 6/6 8/7 7/8
f 7/21 8/22 2/23 1/24
f 2/17 8/18 6/19 4/20
f 7/13 1/14 3/15 5/16
