# This file uses centimeters as units for non-parametric coordinates.

v -24.000000 -24.000000 48.000000
v 23.734335 -24.000000 47.550791
v -23.664299 24.186376 47.640003
v 24.070038 24.186376 47.190794
v -23.664299 24.186376 -48.359997
v 24.070038 24.186376 -48.809212
v -24.000000 -24.000000 -48.000000
v 23.734335 -24.000000 -48.449215
vt 0.007680 0.680421
vt 0.315954 0.680421
vt 0.315954 0.988694
vt 0.007680 0.988694
vt 0.008138 0.053124
vt 0.316574 0.053124
vt 0.316574 0.669994
vt 0.008138 0.669994
vt 0.635023 0.988173
vt 0.325699 0.988173
vt 0.325699 0.678850
vt 0.635023 0.678850
vt 0.326242 0.052602
vt 0.635568 0.052602
vt 0.635568 0.671255
vt 0.326242 0.671255
vt 0.652729 0.995056
vt 0.654859 0.508144
vt 0.899274 0.507387
vt 0.897144 0.994299
vt 0.654161 0.501168
vt 0.650381 0.008200
vt 0.897842 0.008151
vt 0.901622 0.501119
f 1/1 2/2 4/3 3/4
f 3/5 4/6 6/7 5/8
f 5/9 6/10 8/11 7/12
f 7/13 8/14 2/15 1/16
f 2/17 8/18 6/19 4/20
f 7/21 1/22 3/23 5/24
