# This file uses centimeters as units for non-parametric coordinates.

mtllib Button.mtl
g default
v 22.173115 -5.999997 -9.184389
v 16.970574 -5.999997 -16.970552
v 9.184414 -5.999997 -22.173104
v 0.000012 -5.999997 -23.999999
v -9.184391 -5.999997 -22.173115
v -16.970555 -5.999997 -16.970570
v -22.173105 -5.999997 -9.184412
v -24.000000 -5.999997 -0.000009
v -22.173111 -5.999997 9.184395
v -16.970567 -5.999997 16.970558
v -9.184407 -5.999997 22.173108
v -0.000004 -5.999997 24.000000
v 9.184401 -5.999997 22.173110
v 16.970562 -5.999997 16.970564
v 22.173108 -5.999997 9.184403
v 24.000000 -5.999997 0.000000
v 22.173115 5.999997 -9.184389
v 16.970574 5.999997 -16.970552
v 9.184414 5.999997 -22.173104
v 0.000012 5.999997 -23.999999
v -9.184391 5.999997 -22.173115
v -16.970555 5.999997 -16.970570
v -22.173105 5.999997 -9.184412
v -24.000000 5.999997 -0.000009
v -22.173111 5.999997 9.184395
v -16.970567 5.999997 16.970558
v -9.184407 5.999997 22.173108
v -0.000004 5.999997 24.000000
v 9.184401 5.999997 22.173110
v 16.970562 5.999997 16.970564
v 22.173108 5.999997 9.184403
v 24.000000 5.999997 0.000000
v 17.153767 9.960165 -7.105309
v 13.128930 9.960167 -13.128912
v 7.105330 9.960167 -17.153759
v 0.000009 9.960167 -18.567095
v -7.105312 9.960167 -17.153764
v -13.128917 9.960167 -13.128925
v -17.153761 9.960167 -7.105328
v -18.567098 9.960167 -0.000006
v -17.153764 9.960167 7.105315
v -13.128925 9.960167 13.128920
v -7.105325 9.960167 17.153764
v -0.000003 9.960167 18.567095
v 7.105318 9.960167 17.153764
v 13.128922 9.960167 13.128924
v 17.153764 9.960167 7.105322
v 18.567098 9.960167 0.000000
v 12.957274 9.960165 -5.367069
v 9.917072 9.960167 -9.917058
v 5.367085 9.960167 -12.957267
v 0.000007 9.960167 -14.024848
v -5.367071 9.960167 -12.957273
v -9.917063 9.960167 -9.917069
v -12.957268 9.960167 -5.367083
v -14.024852 9.960167 -0.000005
v -12.957273 9.960167 5.367073
v -9.917069 9.960167 9.917065
v -5.367080 9.960167 12.957273
v -0.000002 9.960167 14.024848
v 5.367076 9.960167 12.957273
v 9.917066 9.960167 9.917067
v 12.957273 9.960167 5.367077
v 14.024852 9.960167 0.000000
v 12.957274 13.491626 -5.367069
v 9.917072 13.491627 -9.917058
v 5.367085 13.491627 -12.957267
v 0.000007 13.491627 -14.024848
v -5.367071 13.491627 -12.957273
v -9.917063 13.491627 -9.917069
v -12.957268 13.491627 -5.367083
v -14.024852 13.491627 -0.000005
v -12.957273 13.491627 5.367073
v -9.917069 13.491627 9.917065
v -5.367080 13.491627 12.957273
v -0.000002 13.491627 14.024848
v 5.367076 13.491627 12.957273
v 9.917066 13.491627 9.917067
v 12.957273 13.491627 5.367077
v 14.024852 13.491627 0.000000
vt 0.375000 0.312500
vt 0.390625 0.312500
vt 0.406250 0.312500
vt 0.421875 0.312500
vt 0.437500 0.312500
vt 0.453125 0.312500
vt 0.468750 0.312500
vt 0.484375 0.312500
vt 0.500000 0.312500
vt 0.515625 0.312500
vt 0.531250 0.312500
vt 0.546875 0.312500
vt 0.562500 0.312500
vt 0.578125 0.312500
vt 0.593750 0.312500
vt 0.609375 0.312500
vt 0.625000 0.312500
vt 0.375000 0.687500
vt 0.390625 0.687500
vt 0.406250 0.687500
vt 0.421875 0.687500
vt 0.437500 0.687500
vt 0.453125 0.687500
vt 0.468750 0.687500
vt 0.484375 0.687500
vt 0.500000 0.687500
vt 0.515625 0.687500
vt 0.531250 0.687500
vt 0.546875 0.687500
vt 0.562500 0.687500
vt 0.578125 0.687500
vt 0.593750 0.687500
vt 0.609375 0.687500
vt 0.625000 0.687500
vt 0.000000 0.000000
vt 1.000000 0.000000
vt 1.000000 1.000000
vt 0.000000 1.000000
vt 0.000000 0.000000
vt 1.000000 0.000000
vt 1.000000 1.000000
vt 0.000000 1.000000
vt 0.000000 0.000000
vt 1.000000 0.000000
vt 1.000000 1.000000
vt 0.000000 1.000000
vt 0.000000 0.000000
vt 1.000000 0.000000
vt 1.000000 1.000000
vt 0.000000 1.000000
vt 0.000000 0.000000
vt 1.000000 0.000000
vt 1.000000 1.000000
vt 0.000000 1.000000
vt 0.000000 0.000000
vt 1.000000 0.000000
vt 1.000000 1.000000
vt 0.000000 1.000000
vt 0.000000 0.000000
vt 1.000000 0.000000
vt 1.000000 1.000000
vt 0.000000 1.000000
vt 0.000000 0.000000
vt 1.000000 0.000000
vt 1.000000 1.000000
vt 0.000000 1.000000
vt 0.000000 0.000000
vt 1.000000 0.000000
vt 1.000000 1.000000
vt 0.000000 1.000000
vt 0.000000 0.000000
vt 1.000000 0.000000
vt 1.000000 1.000000
vt 0.000000 1.000000
vt 0.000000 0.000000
vt 1.000000 0.000000
vt 1.000000 1.000000
vt 0.000000 1.000000
vt 0.000000 0.000000
vt 1.000000 0.000000
vt 1.000000 1.000000
vt 0.000000 1.000000
vt 0.000000 0.000000
vt 1.000000 0.000000
vt 1.000000 1.000000
vt 0.000000 1.000000
vt 0.000000 0.000000
vt 1.000000 0.000000
vt 1.000000 1.000000
vt 0.000000 1.000000
vt 0.000000 0.000000
vt 1.000000 0.000000
vt 1.000000 1.000000
vt 0.000000 1.000000
vt 0.000000 0.000000
vt 1.000000 0.000000
vt 1.000000 1.000000
vt 0.000000 1.000000
vt 0.000000 0.000000
vt 1.000000 0.000000
vt 1.000000 1.000000
vt 0.000000 1.000000
vt 0.000000 0.000000
vt 1.000000 0.000000
vt 1.000000 1.000000
vt 0.000000 1.000000
vt 0.000000 0.000000
vt 1.000000 0.000000
vt 1.000000 1.000000
vt 0.000000 1.000000
vt 0.000000 0.000000
vt 1.000000 0.000000
vt 1.000000 1.000000
vt 0.000000 1.000000
vt 0.000000 0.000000
vt 1.000000 0.000000
vt 1.000000 1.000000
vt 0.000000 1.000000
vt 0.000000 0.000000
vt 1.000000 0.000000
vt 1.000000 1.000000
vt 0.000000 1.000000
vt 0.000000 0.000000
vt 1.000000 0.000000
vt 1.000000 1.000000
vt 0.000000 1.000000
vt 0.000000 0.000000
vt 1.000000 0.000000
vt 1.000000 1.000000
vt 0.000000 1.000000
vt 0.000000 0.000000
vt 1.000000 0.000000
vt 1.000000 1.000000
vt 0.000000 1.000000
vt 0.000000 0.000000
vt 1.000000 0.000000
vt 1.000000 1.000000
vt 0.000000 1.000000
vt 0.000000 0.000000
vt 1.000000 0.000000
vt 1.000000 1.000000
vt 0.000000 1.000000
vt 0.000000 0.000000
vt 1.000000 0.000000
vt 1.000000 1.000000
vt 0.000000 1.000000
vt 0.000000 0.000000
vt 1.000000 0.000000
vt 1.000000 1.000000
vt 0.000000 1.000000
vt 0.000000 0.000000
vt 1.000000 0.000000
vt 1.000000 1.000000
vt 0.000000 1.000000
vt 0.000000 0.000000
vt 1.000000 0.000000
vt 1.000000 1.000000
vt 0.000000 1.000000
vt 0.000000 0.000000
vt 1.000000 0.000000
vt 1.000000 1.000000
vt 0.000000 1.000000
vt 0.000000 0.000000
vt 1.000000 0.000000
vt 1.000000 1.000000
vt 0.000000 1.000000
vt 0.000000 0.000000
vt 1.000000 0.000000
vt 1.000000 1.000000
vt 0.000000 1.000000
vt 0.000000 0.000000
vt 1.000000 0.000000
vt 1.000000 1.000000
vt 0.000000 1.000000
vt 0.000000 0.000000
vt 1.000000 0.000000
vt 1.000000 1.000000
vt 0.000000 1.000000
vt 0.000000 0.000000
vt 1.000000 0.000000
vt 1.000000 1.000000
vt 0.000000 1.000000
vt 0.000000 0.000000
vt 1.000000 0.000000
vt 1.000000 1.000000
vt 0.000000 1.000000
vt 0.000000 0.000000
vt 1.000000 0.000000
vt 1.000000 1.000000
vt 0.000000 1.000000
vt 0.000000 0.000000
vt 1.000000 0.000000
vt 1.000000 1.000000
vt 0.000000 1.000000
vt 0.000000 0.000000
vt 1.000000 0.000000
vt 1.000000 1.000000
vt 0.000000 1.000000
vt 0.000000 0.000000
vt 1.000000 0.000000
vt 1.000000 1.000000
vt 0.000000 1.000000
vt 0.000000 0.000000
vt 1.000000 0.000000
vt 1.000000 1.000000
vt 0.000000 1.000000
vt 0.000000 0.000000
vt 1.000000 0.000000
vt 1.000000 1.000000
vt 0.000000 1.000000
vt 0.000000 0.000000
vt 1.000000 0.000000
vt 1.000000 1.000000
vt 0.000000 1.000000
vt 0.000000 0.000000
vt 1.000000 0.000000
vt 1.000000 1.000000
vt 0.000000 1.000000
vt 0.000000 0.000000
vt 1.000000 0.000000
vt 1.000000 1.000000
vt 0.000000 1.000000
vt 0.000000 0.000000
vt 1.000000 0.000000
vt 1.000000 1.000000
vt 0.000000 1.000000
vn 0.923880 0.000000 -0.382683
vn 0.707107 0.000000 -0.707106
vn 0.707107 0.000000 -0.707106
vn 0.923880 0.000000 -0.382683
vn 0.382684 0.000000 -0.923879
vn 0.382684 0.000000 -0.923879
vn 0.000001 0.000000 -1.000000
vn 0.000001 0.000000 -1.000000
vn -0.382683 0.000000 -0.923880
vn -0.382683 0.000000 -0.923880
vn -0.707107 0.000000 -0.707107
vn -0.707107 0.000000 -0.707107
vn -0.923879 0.000000 -0.382684
vn -0.923879 0.000000 -0.382684
vn -1.000000 0.000000 -0.000000
vn -1.000000 0.000000 -0.000000
vn -0.923880 0.000000 0.382683
vn -0.923880 0.000000 0.382683
vn -0.707107 0.000000 0.707107
vn -0.707107 0.000000 0.707107
vn -0.382684 0.000000 0.923880
vn -0.382684 0.000000 0.923880
vn -0.000000 0.000000 1.000000
vn -0.000000 0.000000 1.000000
vn 0.382683 0.000000 0.923880
vn 0.382683 0.000000 0.923880
vn 0.707107 0.000000 0.707107
vn 0.707107 0.000000 0.707107
vn 0.923880 0.000000 0.382683
vn 0.923880 0.000000 0.382683
vn 1.000000 0.000000 0.000000
vn 1.000000 0.000000 0.000000
vn 0.495975 0.802611 -0.331399
vn 0.495975 0.802611 -0.331399
vn 0.495975 0.802611 -0.331399
vn 0.495975 0.802611 -0.331399
vn 0.331400 0.802611 -0.495974
vn 0.331400 0.802611 -0.495974
vn 0.331400 0.802611 -0.495974
vn 0.331400 0.802611 -0.495974
vn 0.116372 0.802611 -0.585042
vn 0.116372 0.802611 -0.585042
vn 0.116372 0.802611 -0.585042
vn 0.116372 0.802611 -0.585042
vn -0.116372 0.802611 -0.585042
vn -0.116372 0.802611 -0.585042
vn -0.116372 0.802611 -0.585042
vn -0.116372 0.802611 -0.585042
vn -0.331399 0.802611 -0.495975
vn -0.331399 0.802611 -0.495975
vn -0.331399 0.802611 -0.495975
vn -0.331399 0.802611 -0.495975
vn -0.495974 0.802610 -0.331400
vn -0.495974 0.802611 -0.331400
vn -0.495974 0.802611 -0.331400
vn -0.495974 0.802610 -0.331400
vn -0.585042 0.802611 -0.116372
vn -0.585042 0.802611 -0.116372
vn -0.585042 0.802611 -0.116372
vn -0.585042 0.802611 -0.116372
vn -0.585042 0.802611 0.116372
vn -0.585042 0.802611 0.116372
vn -0.585042 0.802611 0.116372
vn -0.585042 0.802611 0.116372
vn -0.495975 0.802610 0.331399
vn -0.495975 0.802610 0.331399
vn -0.495975 0.802611 0.331399
vn -0.495975 0.802611 0.331399
vn -0.331400 0.802610 0.495974
vn -0.331400 0.802611 0.495974
vn -0.331400 0.802611 0.495974
vn -0.331400 0.802611 0.495974
vn -0.116372 0.802611 0.585042
vn -0.116372 0.802611 0.585042
vn -0.116372 0.802611 0.585042
vn -0.116372 0.802611 0.585042
vn 0.116372 0.802611 0.585042
vn 0.116372 0.802611 0.585042
vn 0.116372 0.802611 0.585042
vn 0.116372 0.802611 0.585042
vn 0.331399 0.802611 0.495975
vn 0.331399 0.802611 0.495975
vn 0.331399 0.802611 0.495975
vn 0.331400 0.802611 0.495975
vn 0.495975 0.802610 0.331400
vn 0.495975 0.802610 0.331400
vn 0.495975 0.802610 0.331400
vn 0.495975 0.802610 0.331400
vn 0.585042 0.802611 0.116372
vn 0.585042 0.802611 0.116372
vn 0.585042 0.802611 0.116372
vn 0.585042 0.802611 0.116372
vn 0.585041 0.802611 -0.116372
vn 0.585042 0.802611 -0.116372
vn 0.585041 0.802611 -0.116372
vn 0.585041 0.802611 -0.116372
vn 0.000000 1.000000 0.000000
vn 0.000000 1.000000 0.000000
vn 0.000000 1.000000 0.000000
vn 0.000000 1.000000 0.000000
vn 0.000000 1.000000 -0.000000
vn 0.000000 1.000000 -0.000000
vn 0.000000 1.000000 -0.000000
vn 0.000000 1.000000 -0.000000
vn 0.000000 1.000000 0.000000
vn 0.000000 1.000000 0.000000
vn 0.000000 1.000000 0.000000
vn 0.000000 1.000000 0.000000
vn 0.000000 1.000000 -0.000000
vn 0.000000 1.000000 -0.000000
vn 0.000000 1.000000 -0.000000
vn 0.000000 1.000000 -0.000000
vn 0.000000 1.000000 0.000000
vn 0.000000 1.000000 0.000000
vn 0.000000 1.000000 0.000000
vn 0.000000 1.000000 0.000000
vn 0.000000 1.000000 -0.000000
vn 0.000000 1.000000 -0.000000
vn 0.000000 1.000000 -0.000000
vn 0.000000 1.000000 -0.000000
vn 0.000000 1.000000 0.000000
vn 0.000000 1.000000 0.000000
vn 0.000000 1.000000 0.000000
vn 0.000000 1.000000 0.000000
vn 0.000000 1.000000 -0.000000
vn 0.000000 1.000000 -0.000000
vn 0.000000 1.000000 -0.000000
vn 0.000000 1.000000 -0.000000
vn 0.000000 1.000000 0.000000
vn 0.000000 1.000000 0.000000
vn 0.000000 1.000000 0.000000
vn 0.000000 1.000000 0.000000
vn 0.000000 1.000000 0.000000
vn 0.000000 1.000000 0.000000
vn 0.000000 1.000000 0.000000
vn 0.000000 1.000000 0.000000
vn 0.000000 1.000000 0.000000
vn 0.000000 1.000000 0.000000
vn 0.000000 1.000000 0.000000
vn 0.000000 1.000000 0.000000
vn 0.000000 1.000000 0.000000
vn 0.000000 1.000000 0.000000
vn 0.000000 1.000000 0.000000
vn 0.000000 1.000000 0.000000
vn 0.000000 1.000000 -0.000000
vn 0.000000 1.000000 -0.000000
vn 0.000000 1.000000 -0.000000
vn 0.000000 1.000000 -0.000000
vn 0.000000 1.000000 -0.000000
vn 0.000000 1.000000 -0.000000
vn 0.000000 1.000000 -0.000000
vn 0.000000 1.000000 -0.000000
vn 0.000000 1.000000 -0.000000
vn 0.000000 1.000000 -0.000000
vn 0.000000 1.000000 -0.000000
vn 0.000000 1.000000 -0.000000
vn -0.000000 1.000000 -0.000000
vn -0.000000 1.000000 -0.000000
vn -0.000000 1.000000 -0.000000
vn -0.000000 1.000000 -0.000000
vn 0.831470 0.000000 -0.555570
vn 0.831470 0.000000 -0.555570
vn 0.831470 0.000000 -0.555570
vn 0.831470 0.000000 -0.555570
vn 0.555571 0.000000 -0.831469
vn 0.555571 0.000000 -0.831469
vn 0.555571 0.000000 -0.831469
vn 0.555571 0.000000 -0.831469
vn 0.195091 0.000000 -0.980785
vn 0.195091 0.000000 -0.980785
vn 0.195091 0.000000 -0.980785
vn 0.195091 0.000000 -0.980785
vn -0.195090 0.000000 -0.980785
vn -0.195090 0.000000 -0.980785
vn -0.195090 0.000000 -0.980785
vn -0.195090 0.000000 -0.980785
vn -0.555570 0.000000 -0.831470
vn -0.555570 0.000000 -0.831470
vn -0.555570 0.000000 -0.831470
vn -0.555570 0.000000 -0.831470
vn -0.831470 0.000000 -0.555570
vn -0.831470 0.000000 -0.555570
vn -0.831470 0.000000 -0.555570
vn -0.831470 0.000000 -0.555570
vn -0.980785 0.000000 -0.195091
vn -0.980785 0.000000 -0.195091
vn -0.980785 0.000000 -0.195091
vn -0.980785 0.000000 -0.195091
vn -0.980785 0.000000 0.195091
vn -0.980785 0.000000 0.195091
vn -0.980785 0.000000 0.195091
vn -0.980785 0.000000 0.195091
vn -0.831470 0.000000 0.555570
vn -0.831470 0.000000 0.555570
vn -0.831470 0.000000 0.555570
vn -0.831470 0.000000 0.555570
vn -0.555571 0.000000 0.831469
vn -0.555571 0.000000 0.831469
vn -0.555571 0.000000 0.831469
vn -0.555571 0.000000 0.831469
vn -0.195090 0.000000 0.980785
vn -0.195090 0.000000 0.980785
vn -0.195090 0.000000 0.980785
vn -0.195090 0.000000 0.980785
vn 0.195090 0.000000 0.980785
vn 0.195090 0.000000 0.980785
vn 0.195090 0.000000 0.980785
vn 0.195090 0.000000 0.980785
vn 0.555570 0.000000 0.831470
vn 0.555570 0.000000 0.831470
vn 0.555570 0.000000 0.831470
vn 0.555570 0.000000 0.831470
vn 0.831470 0.000000 0.555570
vn 0.831470 0.000000 0.555570
vn 0.831470 0.000000 0.555570
vn 0.831470 0.000000 0.555570
vn 0.980785 0.000000 0.195091
vn 0.980785 0.000000 0.195091
vn 0.980785 0.000000 0.195091
vn 0.980785 0.000000 0.195091
vn 0.980785 0.000000 -0.195091
vn 0.980785 0.000000 -0.195091
vn 0.980785 0.000000 -0.195091
vn 0.980785 0.000000 -0.195091
vn 0.000000 1.000000 0.000000
vn 0.000000 1.000000 0.000000
vn 0.000000 1.000000 0.000000
vn 0.000000 1.000000 0.000000
vn 0.000000 1.000000 0.000000
vn 0.000000 1.000000 0.000000
vn 0.000000 1.000000 0.000000
vn 0.000000 1.000000 0.000000
vn 0.000000 1.000000 0.000000
vn 0.000000 1.000000 0.000000
vn 0.000000 1.000000 0.000000
vn 0.000000 1.000000 0.000000
vn 0.000000 1.000000 0.000000
vn 0.000000 1.000000 0.000000
vn 0.000000 1.000000 0.000000
vn 0.000000 1.000000 0.000000
vn 0.000000 -1.000000 -0.000000
vn 0.000000 -1.000000 -0.000000
vn 0.000000 -1.000000 -0.000000
vn 0.000000 -1.000000 -0.000000
vn 0.000000 -1.000000 -0.000000
vn 0.000000 -1.000000 -0.000000
vn 0.000000 -1.000000 -0.000000
vn 0.000000 -1.000000 -0.000000
vn 0.000000 -1.000000 -0.000000
vn 0.000000 -1.000000 -0.000000
vn 0.000000 -1.000000 -0.000000
vn 0.000000 -1.000000 -0.000000
vn 0.000000 -1.000000 -0.000000
vn 0.000000 -1.000000 -0.000000
vn 0.000000 -1.000000 -0.000000
vn 0.000000 -1.000000 -0.000000
s 1
g pCylinder1
usemtl initialShadingGroup
f 1/1/1 2/2/2 18/19/3 17/18/4
f 2/2/2 3/3/5 19/20/6 18/19/3
f 3/3/5 4/4/7 20/21/8 19/20/6
f 4/4/7 5/5/9 21/22/10 20/21/8
f 5/5/9 6/6/11 22/23/12 21/22/10
f 6/6/11 7/7/13 23/24/14 22/23/12
f 7/7/13 8/8/15 24/25/16 23/24/14
f 8/8/15 9/9/17 25/26/18 24/25/16
f 9/9/17 10/10/19 26/27/20 25/26/18
f 10/10/19 11/11/21 27/28/22 26/27/20
f 11/11/21 12/12/23 28/29/24 27/28/22
f 12/12/23 13/13/25 29/30/26 28/29/24
f 13/13/25 14/14/27 30/31/28 29/30/26
f 14/14/27 15/15/29 31/32/30 30/31/28
f 15/15/29 16/16/31 32/33/32 31/32/30
f 16/16/31 1/17/1 17/34/4 32/33/32
s off
f 17/35/33 18/36/34 34/37/35 33/38/36
f 18/39/37 19/40/38 35/41/39 34/42/40
f 19/43/41 20/44/42 36/45/43 35/46/44
f 20/47/45 21/48/46 37/49/47 36/50/48
f 21/51/49 22/52/50 38/53/51 37/54/52
f 22/55/53 23/56/54 39/57/55 38/58/56
f 23/59/57 24/60/58 40/61/59 39/62/60
f 24/63/61 25/64/62 41/65/63 40/66/64
f 25/67/65 26/68/66 42/69/67 41/70/68
f 26/71/69 27/72/70 43/73/71 42/74/72
f 27/75/73 28/76/74 44/77/75 43/78/76
f 28/79/77 29/80/78 45/81/79 44/82/80
f 29/83/81 30/84/82 46/85/83 45/86/84
f 30/87/85 31/88/86 47/89/87 46/90/88
f 31/91/89 32/92/90 48/93/91 47/94/92
f 32/95/93 17/96/94 33/97/95 48/98/96
f 33/99/97 34/100/98 50/101/99 49/102/100
f 34/103/101 35/104/102 51/105/103 50/106/104
f 35/107/105 36/108/106 52/109/107 51/110/108
f 36/111/109 37/112/110 53/113/111 52/114/112
f 37/115/113 38/116/114 54/117/115 53/118/116
f 38/119/117 39/120/118 55/121/119 54/122/120
f 39/123/121 40/124/122 56/125/123 55/126/124
f 40/127/125 41/128/126 57/129/127 56/130/128
f 41/131/129 42/132/130 58/133/131 57/134/132
f 42/135/133 43/136/134 59/137/135 58/138/136
f 43/139/137 44/140/138 60/141/139 59/142/140
f 44/143/141 45/144/142 61/145/143 60/146/144
f 45/147/145 46/148/146 62/149/147 61/150/148
f 46/151/149 47/152/150 63/153/151 62/154/152
f 47/155/153 48/156/154 64/157/155 63/158/156
f 48/159/157 33/160/158 49/161/159 64/162/160
f 49/163/161 50/164/162 66/165/163 65/166/164
f 50/167/165 51/168/166 67/169/167 66/170/168
f 51/171/169 52/172/170 68/173/171 67/174/172
f 52/175/173 53/176/174 69/177/175 68/178/176
f 53/179/177 54/180/178 70/181/179 69/182/180
f 54/183/181 55/184/182 71/185/183 70/186/184
f 55/187/185 56/188/186 72/189/187 71/190/188
f 56/191/189 57/192/190 73/193/191 72/194/192
f 57/195/193 58/196/194 74/197/195 73/198/196
f 58/199/197 59/200/198 75/201/199 74/202/200
f 59/203/201 60/204/202 76/205/203 75/206/204
f 60/207/205 61/208/206 77/209/207 76/210/208
f 61/211/209 62/212/210 78/213/211 77/214/212
f 62/215/213 63/216/214 79/217/215 78/218/216
f 63/219/217 64/220/218 80/221/219 79/222/220
f 64/223/221 49/224/222 65/225/223 80/226/224
f 66/170/225 67/174/226 68/178/227 69/182/228 70/186/229 71/190/230 72/194/231 73/198/232 74/202/233 75/206/234 76/210/235 77/214/236 78/218/237 79/222/238 80/226/239 65/166/240
f 2/2/241 1/17/242 16/16/243 15/15/244 14/14/245 13/13/246 12/12/247 11/11/248 10/10/249 9/9/250 8/8/251 7/7/252 6/6/253 5/5/254 4/4/255 3/3/256
