# This file uses centimeters as units for non-parametric coordinates.

mtllib Flag.mtl
g default
v -5.453624 30.000000 -11.265295
v 5.453624 30.000000 -11.265295
v 5.453624 7.761980 -11.265295
v -5.453624 7.761980 -11.265295
v -5.453624 30.000000 -34.782562
v 5.453624 30.000000 -34.782562
v 5.453624 7.761980 -34.782562
v -5.453624 7.761980 -34.782562
v -9.000000 -30.000000 6.390616
v -6.390616 -30.000000 9.000000
v -9.000000 7.761980 6.390616
v -6.390616 7.761980 9.000000
v 9.000000 -30.000000 6.390616
v 6.390616 -30.000000 9.000000
v 9.000000 7.761980 6.390616
v 6.390616 7.761980 9.000000
v -7.226990 30.000000 -10.132534
v -9.000000 30.000000 -6.896147
v -7.154887 30.000000 -9.000000
v -7.226990 7.761980 -10.132534
v -6.390616 7.761980 -9.000000
v -9.000000 7.761980 -6.643381
v 7.226990 30.000000 -10.132534
v 7.154887 30.000000 -9.000000
v 9.000000 30.000000 -6.896147
v 7.226990 7.761980 -10.132534
v 9.000000 7.761980 -6.643381
v 6.390616 7.761980 -9.000000
v -6.390616 30.000000 9.000000
v -9.000000 30.000000 6.390616
v -6.390616 -30.000000 -9.000000
v -9.000000 -30.000000 -6.390616
v 9.000000 -30.000000 -6.390616
v 6.390616 -30.000000 -9.000000
v 9.000000 30.000000 6.390616
v 6.390616 30.000000 9.000000
vt 0.431033 0.034044
vt 0.431033 0.620558
vt 0.431033 0.620558
vt 0.431033 0.034044
vt 0.887992 0.965956
vt 0.887992 0.965956
vt 0.887992 0.620558
vt 0.887992 0.620558
vt 0.451105 0.965956
vt 0.451105 0.620558
vt 0.471182 0.620558
vt 0.471182 0.965956
vt 0.451105 0.620558
vt 0.451105 0.965956
vt 0.471182 0.965956
vt 0.471182 0.620558
vt 0.431033 0.965956
vt 0.431033 0.965956
vt 0.158256 0.965956
vt 0.112008 0.965956
vt 0.112008 0.965956
vt 0.158256 0.965956
vt 0.393745 0.965956
vt 0.393745 0.965956
vt 0.384785 0.034044
vt 0.384785 0.034044
vt 0.158256 0.034044
vt 0.112008 0.034044
vt 0.112008 0.034044
vt 0.158256 0.034044
vt 0.112008 0.620558
vt 0.158256 0.620558
vt 0.158256 0.620558
vt 0.112008 0.620558
vt 0.389265 0.620558
vt 0.389265 0.620558
vn 0.000000 0.000000 -1.000000
vn 0.000000 0.000000 -1.000000
vn 0.000000 0.000000 -1.000000
vn 0.000000 0.000000 -1.000000
vn 0.000000 0.000000 -1.000000
vn 0.000000 0.000000 -1.000000
vn 0.000000 0.000000 -1.000000
vn 0.000000 0.000000 -1.000000
vn 0.785113 -0.001760 -0.619350
vn 0.785113 -0.001760 -0.619350
vn 0.538314 0.000000 -0.842744
vn 0.538314 0.000000 -0.842744
vn -0.785113 -0.001760 -0.619350
vn -0.785113 -0.001760 -0.619350
vn -0.538314 0.000000 -0.842744
vn -0.538314 0.000000 -0.842744
vn 0.000000 1.000000 0.000000
vn 0.000000 1.000000 0.000000
vn 0.000000 1.000000 0.000000
vn 0.000000 1.000000 0.000000
vn 1.000000 0.000000 0.000000
vn 1.000000 0.000000 0.000000
vn 1.000000 0.000000 0.000000
vn 1.000000 0.000000 0.000000
vn 0.000000 -1.000000 -0.000000
vn 0.000000 -1.000000 -0.000000
vn 0.000000 -1.000000 0.000000
vn 0.000000 -1.000000 0.000000
vn -1.000000 0.000000 0.000000
vn -1.000000 0.000000 0.000000
vn -1.000000 0.000000 0.000000
vn -1.000000 0.000000 0.000000
vn 0.000000 1.000000 0.000001
vn 0.000000 1.000000 0.000000
vn 0.000000 1.000000 0.000000
vn 0.000000 1.000000 0.000001
vn 0.000000 -1.000000 -0.000000
vn 0.000000 -1.000000 -0.000000
vn 0.000000 -1.000000 -0.000000
vn 0.000000 -1.000000 -0.000000
vn 0.000000 1.000000 0.000000
vn 0.000000 1.000000 0.000000
vn 0.000000 1.000000 0.000000
vn 0.000000 1.000000 0.000000
vn 0.000000 1.000000 0.000000
vn 0.000000 1.000000 0.000000
vn 0.000000 -1.000000 0.000000
vn 0.000000 -1.000000 0.000000
vn 0.000000 -1.000000 0.000000
vn 0.000000 -1.000000 0.000000
vn 0.000000 -1.000000 0.000000
vn 0.000000 -1.000000 0.000000
vn 0.000000 -1.000000 0.000000
vn 0.000000 -1.000000 0.000000
vn -0.707107 0.000000 0.707107
vn -0.707107 0.000000 0.707107
vn -0.707107 0.000000 0.707107
vn -0.707107 0.000000 0.707107
vn -0.707107 0.000000 0.707107
vn -0.707107 0.000000 0.707107
vn 0.707107 0.000000 0.707107
vn 0.707107 0.000000 0.707107
vn 0.707107 0.000000 0.707107
vn 0.707107 0.000000 0.707107
vn 0.707107 0.000000 0.707107
vn 0.707107 0.000000 0.707107
vn -0.993870 -0.000628 -0.110549
vn -0.998980 -0.000257 -0.045163
vn -0.689344 -0.002425 -0.724431
vn -0.689344 -0.002425 -0.724431
vn -0.689344 -0.002425 -0.724431
vn -0.689344 -0.002425 -0.724431
vn 0.884575 -0.002651 -0.466390
vn 0.884575 -0.002651 -0.466390
vn 0.689344 -0.002425 -0.724431
vn 0.689344 -0.002425 -0.724431
vn 0.689344 -0.002425 -0.724431
vn 0.689344 -0.002425 -0.724431
vn 0.000000 0.000000 1.000000
vn 0.000000 0.000000 1.000000
vn 0.000000 0.000000 1.000000
vn 0.000000 0.000000 1.000000
vn 1.000000 0.000000 0.000000
vn 1.000000 0.000000 0.000000
vn 1.000000 0.000000 0.000000
vn 1.000000 0.000000 0.000000
vn -1.000000 0.000000 0.000000
vn -1.000000 0.000000 0.000000
vn -1.000000 0.000000 0.000000
vn -1.000000 0.000000 0.000000
vn 1.000000 0.000000 0.000000
vn 1.000000 0.000000 0.000000
vn 0.000000 0.000000 1.000000
vn 0.000000 0.000000 1.000000
vn 0.000000 -1.000000 0.000000
vn 0.000000 -1.000000 0.000000
s off
g pCube1
usemtl initialShadingGroup
f 31/1/1 21/2/2 28/3/3 34/4/4
f 5/5/5 6/6/6 7/7/7 8/8/8
s 1
f 23/9/9 26/10/10 3/11/11 2/12/12
s 2
f 20/13/13 17/14/14 1/15/15 4/16/16
s 3
f 1/15/17 2/12/18 6/6/19 5/5/20
s off
f 2/12/21 3/11/22 7/7/23 6/6/24
s 4
f 3/11/25 4/16/26 8/8/27 7/7/28
s off
f 4/16/29 1/15/30 5/5/31 8/8/32
s 3
f 17/14/33 19/17/34 24/18/35 23/9/36 2/12/18 1/15/17
s 4
f 26/10/37 28/3/38 21/2/39 20/13/40 4/16/26 3/11/25
s 3
f 30/19/41 29/20/42 36/21/43 35/22/44 25/23/45 24/18/35 19/17/34 18/24/46
s off
f 32/25/47 31/1/48 34/4/49 33/26/50 13/27/51 14/28/52 10/29/53 9/30/54
s 5
f 9/30/55 10/29/56 12/31/57 11/32/58
f 11/32/58 12/31/57 29/20/59 30/19/60
s 6
f 14/28/61 13/27/62 15/33/63 16/34/64
f 16/34/64 15/33/63 35/22/65 36/21/66
s 2
f 18/24/67 17/14/14 20/13/13 22/35/68
s off
f 22/35/69 21/2/70 31/1/71 32/25/72
s 1
f 23/9/9 25/23/73 27/36/74 26/10/10
s off
f 28/3/75 27/36/76 33/26/77 34/4/78
s 7
f 12/31/79 10/29/80 14/28/81 16/34/82
s 8
f 15/33/83 13/27/84 33/26/85 27/36/86
s 2
f 22/35/68 32/25/87 9/30/88 11/32/89
f 18/24/67 22/35/68 11/32/89 30/19/90
s 8
f 15/33/83 27/36/86 25/23/91 35/22/92
s 7
f 12/31/79 16/34/82 36/21/93 29/20/94
s 3
f 17/14/33 18/24/46 19/17/34
s 4
f 20/13/40 21/2/39 22/35/95
s 3
f 23/9/36 24/18/35 25/23/45
s 4
f 26/10/37 27/36/96 28/3/38
