# This file uses centimeters as units for non-parametric coordinates.

mtllib GateBoxOnly.mtl
g default
v -12.022797 36.162500 5.958284
v 12.022797 36.162500 5.958284
v -12.022797 36.162500 -5.777278
v 12.022797 36.162500 -5.777278
v 10.234185 32.229532 5.320107
v -10.234185 32.229532 5.320107
v -10.234185 32.229532 -5.139102
v 10.234185 32.229532 -5.139102
v 8.866312 30.957104 4.467347
v -8.866312 30.957104 4.467347
v -8.866312 30.957104 -4.286339
v 8.866312 30.957104 -4.286339
v -12.022797 0.000000 5.958284
v 12.022797 -0.000000 5.958284
v -12.022797 0.000000 -5.777278
v 12.022797 -0.000000 -5.777278
v 10.234185 0.000000 5.320107
v -10.234185 0.000007 5.320107
v 10.234185 0.000000 -5.139102
v -10.234185 0.000000 -5.139102
v 8.866312 0.000000 4.467347
v -8.866312 0.000000 4.467347
v 8.866313 0.000000 -4.286339
v -8.866313 0.000000 -4.286339
v -12.022797 -36.460805 5.958284
v 12.022797 -36.460805 5.958284
v -12.022797 -36.460805 -5.777278
v 12.022797 -36.460805 -5.777278
v 10.234185 -36.460808 5.320107
v -10.234185 -36.460808 5.320107
v -10.234185 -36.460808 -5.139102
v 10.234185 -36.460808 -5.139102
v 8.866312 -36.460808 4.467347
v -8.866312 -36.460808 4.467347
v -8.866312 -36.460808 -4.286339
v 8.866312 -36.460808 -4.286339
vt 0.574180 0.432443
vt 0.574180 0.018230
vt 0.707501 0.018230
vt 0.707501 0.432443
vt 0.707501 0.843266
vt 0.574180 0.843266
vt 0.715269 0.432443
vt 0.715269 0.018230
vt 0.848591 0.018230
vt 0.848591 0.432443
vt 0.848591 0.843266
vt 0.715269 0.843266
vt 0.854502 0.291400
vt 0.854502 0.018230
vt 0.987824 0.018230
vt 0.987824 0.291400
vt 0.872093 0.536207
vt 0.872093 0.334756
vt 0.971539 0.334756
vt 0.971539 0.536207
vt 0.981227 0.319216
vt 0.862405 0.319216
vt 0.981227 0.551747
vt 0.862405 0.551747
vt 0.988477 0.298897
vt 0.855155 0.298897
vt 0.988477 0.572066
vt 0.855155 0.572066
vt 0.049303 0.429054
vt 0.049303 0.077366
vt 0.250754 0.077366
vt 0.250754 0.429054
vt 0.250754 0.843266
vt 0.049303 0.843266
vt 0.033763 0.843266
vt 0.033763 0.429054
vt 0.033763 0.062911
vt 0.266294 0.062911
vt 0.266294 0.429054
vt 0.266294 0.843266
vt 0.013444 0.843266
vt 0.013444 0.429054
vt 0.013444 0.018230
vt 0.286613 0.018230
vt 0.286613 0.429054
vt 0.286613 0.843266
vt 0.567077 0.843266
vt 0.293907 0.843266
vt 0.314227 0.798586
vt 0.546757 0.798586
vt 0.314227 0.432443
vt 0.293907 0.432443
vt 0.293907 0.018230
vt 0.314227 0.018230
vt 0.329766 0.784130
vt 0.531218 0.784130
vt 0.546757 0.432443
vt 0.546757 0.018230
vt 0.567077 0.018230
vt 0.567077 0.432443
vt 0.329766 0.432443
vt 0.329766 0.018230
vt 0.531218 0.018230
vt 0.531218 0.432443
vn 0.000000 1.000000 0.000000
vn 0.000000 1.000000 0.000000
vn 0.000000 1.000000 0.000000
vn 0.000000 1.000000 0.000000
vn 0.000000 0.000000 -1.000000
vn 0.000000 0.000000 -1.000000
vn 0.000000 0.000000 -1.000000
vn 0.000000 0.000000 -1.000000
vn 0.000000 0.000000 -1.000000
vn 0.000000 0.000000 -1.000000
vn 0.000000 -0.160169 0.987090
vn 0.000000 -0.160169 0.987090
vn 0.000000 -0.160169 0.987090
vn 0.000000 -0.160169 0.987090
vn 0.336050 0.000000 0.941844
vn 0.336050 0.000000 0.941844
vn 0.336050 0.000000 0.941844
vn 0.336050 0.000000 0.941844
vn 0.336050 0.000000 0.941844
vn 0.336050 0.000000 0.941844
vn 0.000000 -0.160168 -0.987090
vn 0.000000 -0.160168 -0.987090
vn 0.000000 -0.160168 -0.987090
vn 0.000000 -0.160168 -0.987090
vn -0.336050 0.000000 -0.941844
vn -0.336050 0.000000 -0.941844
vn -0.336050 0.000000 -0.941844
vn -0.336050 0.000000 -0.941844
vn -0.336050 0.000000 -0.941844
vn -0.336050 0.000000 -0.941844
vn 0.000000 -0.556721 0.830700
vn 0.000000 -0.556721 0.830700
vn 0.000000 -0.556721 0.830700
vn 0.000000 -0.556721 0.830700
vn 0.529035 0.000000 0.848600
vn 0.529035 0.000000 0.848600
vn 0.529035 0.000000 0.848600
vn 0.529035 0.000000 0.848600
vn 0.529035 0.000000 0.848600
vn 0.529035 0.000000 0.848600
vn 0.000000 -0.556722 -0.830699
vn 0.000000 -0.556722 -0.830699
vn 0.000000 -0.556722 -0.830699
vn 0.000000 -0.556722 -0.830699
vn -0.529036 0.000000 -0.848599
vn -0.529036 0.000000 -0.848599
vn -0.529036 0.000000 -0.848599
vn -0.529036 0.000000 -0.848599
vn -0.529036 0.000000 -0.848599
vn -0.529036 0.000000 -0.848599
vn 0.000000 0.000000 1.000000
vn 0.000000 0.000000 1.000000
vn 0.000000 0.000000 1.000000
vn 0.000000 0.000000 1.000000
vn 0.000000 0.000000 1.000000
vn 0.000000 0.000000 1.000000
vn 1.000000 0.000000 0.000000
vn 1.000000 0.000000 0.000000
vn 1.000000 0.000000 0.000000
vn 1.000000 0.000000 0.000000
vn 1.000000 0.000000 0.000000
vn 1.000000 0.000000 0.000000
vn -1.000000 0.000000 0.000000
vn -1.000000 0.000000 0.000000
vn -1.000000 0.000000 0.000000
vn -1.000000 0.000000 0.000000
vn -1.000000 0.000000 0.000000
vn -1.000000 0.000000 0.000000
vn -0.336050 0.000000 0.941844
vn -0.336050 0.000000 0.941844
vn -0.336050 0.000000 0.941844
vn -0.336050 0.000000 0.941844
vn -0.336050 0.000000 0.941844
vn -0.336050 0.000000 0.941844
vn 0.336050 0.000000 -0.941844
vn 0.336050 0.000000 -0.941844
vn 0.336050 0.000000 -0.941844
vn 0.336050 0.000000 -0.941844
vn 0.336050 0.000000 -0.941844
vn 0.336050 0.000000 -0.941844
vn -0.529035 0.000000 0.848600
vn -0.529035 0.000000 0.848600
vn -0.529035 0.000000 0.848600
vn -0.529035 0.000000 0.848600
vn -0.529035 0.000000 0.848600
vn -0.529035 0.000000 0.848600
vn 0.529036 0.000000 -0.848599
vn 0.529036 0.000000 -0.848599
vn 0.529036 0.000000 -0.848599
vn 0.529036 0.000000 -0.848599
vn 0.529036 0.000000 -0.848599
vn 0.529036 0.000000 -0.848599
vn 0.000000 -1.000000 0.000000
vn 0.000000 -1.000000 0.000000
vn 0.000000 -1.000000 0.000000
vn 0.000000 -1.000000 0.000000
vn 0.000000 -1.000000 0.000000
vn 0.000000 -1.000000 0.000000
vn 0.000000 -1.000000 0.000000
vn 0.000000 -1.000000 0.000000
vn 0.000002 -1.000000 0.000000
vn 0.000002 -1.000000 0.000000
vn 0.000002 -1.000000 0.000000
vn 0.000002 -1.000000 0.000000
vn 0.000000 -1.000000 0.000000
vn 0.000000 -1.000000 0.000000
vn 0.000000 -1.000000 0.000000
vn 0.000000 -1.000000 0.000000
vn -0.000002 -1.000000 0.000000
vn -0.000002 -1.000000 0.000000
vn -0.000002 -1.000000 0.000000
vn -0.000002 -1.000000 0.000000
s off
g pCube1
usemtl texturedFacets5
f 1/13/1 2/14/2 4/15/3 3/16/4
f 24/29/5 11/30/6 12/31/7 23/32/8 36/33/9 35/34/10
f 2/47/11 1/48/12 6/49/13 5/50/14
f 18/51/15 6/49/16 1/48/17 13/52/18 25/53/19 30/54/20
f 3/43/21 4/44/22 8/38/23 7/37/24
f 19/39/25 8/38/26 4/44/27 16/45/28 28/46/29 32/40/30
f 5/50/31 6/49/32 10/55/33 9/56/34
f 22/61/35 10/55/36 6/49/37 18/51/38 30/54/39 34/62/40
f 7/37/41 8/38/42 12/31/43 11/30/44
f 23/32/45 12/31/46 8/38/47 19/39/48 32/40/49 36/33/50
f 22/61/51 34/62/52 33/63/53 21/64/54 9/56/55 10/55/56
f 14/1/57 26/2/58 28/3/59 16/4/60 4/5/61 2/6/62
f 15/7/63 27/8/64 25/9/65 13/10/66 1/11/67 3/12/68
f 17/57/69 29/58/70 26/59/71 14/60/72 2/47/73 5/50/74
f 20/36/75 31/35/76 27/41/77 15/42/78 3/43/79 7/37/80
f 21/64/81 33/63/82 29/58/83 17/57/84 5/50/85 9/56/86
f 24/29/87 35/34/88 31/35/89 20/36/90 7/37/91 11/30/92
f 35/17/93 36/18/94 33/19/95 34/20/96
f 29/21/97 33/19/98 36/18/99 32/22/100
f 26/25/101 29/21/102 32/22/103 28/26/104
f 34/20/105 30/23/106 31/24/107 35/17/108
f 30/23/109 25/27/110 27/28/111 31/24/112
