# This file uses centimeters as units for non-parametric coordinates.

mtllib Gate.mtl
g default
v -12.022797 36.162500 5.958282
v 12.022797 36.162500 5.958282
v -12.022797 36.162500 -5.777279
v 12.022797 36.162500 -5.777279
v 10.234183 32.229532 5.320104
v -10.234184 32.229532 5.320104
v -10.234184 32.229532 -5.139102
v 10.234184 32.229532 -5.139102
v 8.866311 30.957104 4.467345
v -8.866312 30.957104 4.467345
v -8.866312 30.957104 -4.286339
v 8.866312 30.957104 -4.286339
v -12.022797 0.000000 5.958282
v 12.022797 -0.000000 5.958282
v -12.022797 0.000000 -5.777279
v 12.022797 -0.000000 -5.777279
v 10.234183 0.000000 5.320104
v -10.234184 0.000007 5.320104
v 10.234184 0.000000 -5.139102
v -10.234184 0.000000 -5.139102
v 8.866311 0.000000 4.467345
v -8.866312 0.000000 4.467345
v 8.866313 0.000000 -4.286339
v -8.866313 0.000000 -4.286339
v -12.022797 -36.162500 5.958282
v 12.022797 -36.162500 5.958282
v -12.022797 -36.162500 -5.777279
v 12.022797 -36.162500 -5.777279
v 10.234183 -32.229532 5.320104
v -10.234184 -32.229532 5.320104
v -10.234184 -32.229532 -5.139102
v 10.234184 -32.229532 -5.139102
v 8.866311 -30.957104 4.467345
v -8.866312 -30.957104 4.467345
v -8.866312 -30.957104 -4.286339
v 8.866312 -30.957104 -4.286339
vt 0.572297 0.422438
vt 0.572297 0.010343
vt 0.706032 0.010343
vt 0.706032 0.422438
vt 0.706032 0.834532
vt 0.572297 0.834532
vt 0.713475 0.422438
vt 0.713475 0.010343
vt 0.847209 0.010343
vt 0.847209 0.422438
vt 0.847209 0.834532
vt 0.713475 0.834532
vt 0.854691 0.567495
vt 0.854691 0.293481
vt 0.988425 0.293481
vt 0.988425 0.567495
vt 0.988588 0.284349
vt 0.854854 0.284349
vt 0.854854 0.010335
vt 0.988588 0.010335
vt 0.047184 0.422438
vt 0.047184 0.069662
vt 0.249259 0.069662
vt 0.249259 0.422438
vt 0.249259 0.775213
vt 0.047184 0.775213
vt 0.031597 0.789713
vt 0.031597 0.422438
vt 0.031597 0.055162
vt 0.264847 0.055162
vt 0.264847 0.422438
vt 0.264847 0.789713
vt 0.011214 0.834532
vt 0.011214 0.422438
vt 0.011214 0.010343
vt 0.285229 0.010343
vt 0.285229 0.422438
vt 0.285229 0.834532
vt 0.565866 0.834532
vt 0.291851 0.834532
vt 0.312234 0.789713
vt 0.545483 0.789713
vt 0.312234 0.422438
vt 0.291851 0.422438
vt 0.291851 0.010343
vt 0.312234 0.055162
vt 0.327821 0.775213
vt 0.529896 0.775213
vt 0.545483 0.422438
vt 0.545483 0.055162
vt 0.565866 0.010343
vt 0.565866 0.422438
vt 0.327821 0.422438
vt 0.327821 0.069662
vt 0.529896 0.069662
vt 0.529896 0.422438
vn 0.000000 1.000000 0.000000
vn 0.000000 1.000000 0.000000
vn 0.000000 1.000000 0.000000
vn 0.000000 1.000000 0.000000
vn 0.000000 0.000000 -1.000000
vn 0.000000 0.000000 -1.000000
vn 0.000000 0.000000 -1.000000
vn 0.000000 0.000000 -1.000000
vn 0.000000 0.000000 -1.000000
vn 0.000000 0.000000 -1.000000
vn 0.000000 -0.160169 0.987090
vn 0.000000 -0.160169 0.987090
vn 0.000000 -0.160169 0.987090
vn 0.000000 -0.160169 0.987090
vn 0.336050 0.000000 0.941844
vn 0.336050 0.000000 0.941844
vn 0.336050 0.000000 0.941844
vn 0.336050 0.000000 0.941844
vn 0.336050 0.000000 0.941844
vn 0.336050 0.000000 0.941844
vn 0.000000 -0.160168 -0.987090
vn 0.000000 -0.160168 -0.987090
vn 0.000000 -0.160168 -0.987090
vn 0.000000 -0.160168 -0.987090
vn -0.336050 0.000000 -0.941844
vn -0.336050 0.000000 -0.941844
vn -0.336050 0.000000 -0.941844
vn -0.336050 0.000000 -0.941844
vn -0.336050 0.000000 -0.941844
vn -0.336050 0.000000 -0.941844
vn 0.000000 -0.556721 0.830700
vn 0.000000 -0.556721 0.830700
vn 0.000000 -0.556721 0.830700
vn 0.000000 -0.556721 0.830700
vn 0.529034 0.000000 0.848600
vn 0.529035 0.000000 0.848600
vn 0.529035 0.000000 0.848600
vn 0.529034 0.000000 0.848600
vn 0.529034 0.000000 0.848600
vn 0.529035 0.000000 0.848600
vn 0.000000 -0.556723 -0.830698
vn 0.000000 -0.556723 -0.830698
vn 0.000000 -0.556723 -0.830698
vn 0.000000 -0.556723 -0.830698
vn -0.529037 0.000000 -0.848599
vn -0.529037 0.000000 -0.848599
vn -0.529037 0.000000 -0.848599
vn -0.529037 0.000000 -0.848599
vn -0.529037 0.000000 -0.848599
vn -0.529037 0.000000 -0.848599
vn 0.000000 -1.000000 0.000000
vn 0.000000 -1.000000 0.000000
vn 0.000000 -1.000000 0.000000
vn 0.000000 -1.000000 0.000000
vn 0.000000 0.160169 0.987090
vn 0.000000 0.160169 0.987090
vn 0.000000 0.160169 0.987090
vn 0.000000 0.160169 0.987090
vn 0.000000 0.160168 -0.987090
vn 0.000000 0.160168 -0.987090
vn 0.000000 0.160168 -0.987090
vn 0.000000 0.160168 -0.987090
vn 0.000000 0.556721 0.830699
vn 0.000000 0.556721 0.830699
vn 0.000000 0.556721 0.830699
vn 0.000000 0.556721 0.830699
vn 0.000000 0.556723 -0.830698
vn 0.000000 0.556723 -0.830698
vn 0.000000 0.556723 -0.830698
vn 0.000000 0.556723 -0.830698
vn 0.000000 0.000000 1.000000
vn 0.000000 0.000000 1.000000
vn 0.000000 0.000000 1.000000
vn 0.000000 0.000000 1.000000
vn 0.000000 0.000000 1.000000
vn 0.000000 0.000000 1.000000
vn 1.000000 0.000000 0.000000
vn 1.000000 0.000000 0.000000
vn 1.000000 0.000000 0.000000
vn 1.000000 0.000000 0.000000
vn 1.000000 0.000000 0.000000
vn 1.000000 0.000000 0.000000
vn -1.000000 0.000000 0.000000
vn -1.000000 0.000000 0.000000
vn -1.000000 0.000000 0.000000
vn -1.000000 0.000000 0.000000
vn -1.000000 0.000000 0.000000
vn -1.000000 0.000000 0.000000
vn -0.336050 0.000000 0.941844
vn -0.336050 0.000000 0.941844
vn -0.336050 0.000000 0.941844
vn -0.336050 0.000000 0.941844
vn -0.336050 0.000000 0.941844
vn -0.336050 0.000000 0.941844
vn 0.336050 0.000000 -0.941844
vn 0.336050 0.000000 -0.941844
vn 0.336050 0.000000 -0.941844
vn 0.336050 0.000000 -0.941844
vn 0.336050 0.000000 -0.941844
vn 0.336050 0.000000 -0.941844
vn -0.529034 0.000000 0.848600
vn -0.529035 0.000000 0.848600
vn -0.529034 0.000000 0.848600
vn -0.529034 0.000000 0.848600
vn -0.529034 0.000000 0.848600
vn -0.529035 0.000000 0.848600
vn 0.529037 0.000000 -0.848599
vn 0.529037 0.000000 -0.848599
vn 0.529037 0.000000 -0.848599
vn 0.529037 0.000000 -0.848599
vn 0.529037 0.000000 -0.848599
vn 0.529037 0.000000 -0.848599
s off
g pCube1
usemtl texturedFacets3
f 1/13/1 2/14/2 4/15/3 3/16/4
f 24/21/5 11/22/6 12/23/7 23/24/8 36/25/9 35/26/10
f 2/39/11 1/40/12 6/41/13 5/42/14
f 18/43/15 6/41/16 1/40/17 13/44/18 25/45/19 30/46/20
f 3/35/21 4/36/22 8/30/23 7/29/24
f 19/31/25 8/30/26 4/36/27 16/37/28 28/38/29 32/32/30
f 5/42/31 6/41/32 10/47/33 9/48/34
f 22/53/35 10/47/36 6/41/37 18/43/38 30/46/39 34/54/40
f 7/29/41 8/30/42 12/23/43 11/22/44
f 23/24/45 12/23/46 8/30/47 19/31/48 32/32/49 36/25/50
f 25/17/51 27/18/52 28/19/53 26/20/54
f 26/51/55 29/50/56 30/46/57 25/45/58
f 27/33/59 31/27/60 32/32/61 28/38/62
f 29/50/63 33/55/64 34/54/65 30/46/66
f 31/27/67 35/26/68 36/25/69 32/32/70
f 22/53/71 34/54/72 33/55/73 21/56/74 9/48/75 10/47/76
f 14/1/77 26/2/78 28/3/79 16/4/80 4/5/81 2/6/82
f 15/7/83 27/8/84 25/9/85 13/10/86 1/11/87 3/12/88
f 17/49/89 29/50/90 26/51/91 14/52/92 2/39/93 5/42/94
f 20/28/95 31/27/96 27/33/97 15/34/98 3/35/99 7/29/100
f 21/56/101 33/55/102 29/50/103 17/49/104 5/42/105 9/48/106
f 24/21/107 35/26/108 31/27/109 20/28/110 7/29/111 11/22/112
