# This file uses centimeters as units for non-parametric coordinates.

v -12.000000 -3.000000 48.000000
v 12.000000 -3.000000 48.000000
v -12.000000 3.000000 48.000000
v 12.000000 3.000000 48.000000
v -12.000000 3.000000 -48.000000
v 12.000000 3.000000 -48.000000
v -12.000000 -3.000000 -48.000000
v 12.000000 -3.000000 -48.000000
vt 0.010529 0.007704
vt 0.664292 0.007704
vt 0.664292 0.171145
vt 0.010529 0.171145
vt 0.006089 0.992957
vt 0.006154 0.746018
vt 0.993911 0.746276
vt 0.993846 0.993216
vt 0.006121 0.676419
vt 0.993878 0.676419
vt 0.993878 0.738154
vt 0.006121 0.738154
vt 0.006352 0.670752
vt 0.005892 0.423813
vt 0.993648 0.421974
vt 0.994108 0.668913
vt 0.006121 0.353646
vt 0.993878 0.353646
vt 0.993878 0.415381
vt 0.006121 0.415381
vt 0.662518 0.346632
vt 0.009228 0.346632
vt 0.009228 0.183310
vt 0.662518 0.183310
f 1/1 2/2 4/3 3/4
f 3/5 4/6 6/7 5/8
f 5/21 6/22 8/23 7/24
f 7/13 8/14 2/15 1/16
f 2/9 8/10 6/11 4/12
f 7/17 1/18 3/19 5/20
