# This file uses centimeters as units for non-parametric coordinates.

mtllib TriangleFloor.mtl
g default
v -12.088625 -12.088625 12.088625
v 12.088625 -12.088625 12.088625
v -12.088625 12.088625 -12.088625
v 12.088625 12.088625 -12.088625
v -12.088625 -12.088625 -12.088625
v 12.088625 -12.088625 -12.088625
vt 0.387445 0.386781
vt 0.754762 0.386781
vt 0.387445 0.754098
vt 0.013787 0.386781
vt 0.381103 0.386781
vt 0.381103 0.754098
vt 0.395240 0.015339
vt 0.762557 0.015339
vt 0.762557 0.382655
vt 0.395240 0.382655
vt 0.020316 0.015339
vt 0.387632 0.015339
vt 0.387632 0.382655
vt 0.020316 0.382655
vt 0.460932 0.726822
vt 0.714967 0.461515
vt 0.980274 0.715550
vt 0.726239 0.980857
vn 0.000000 0.000000 -1.000000
vn 0.000000 0.000000 -1.000000
vn 0.000000 0.000000 -1.000000
vn 0.000000 0.000000 -1.000000
vn 0.000000 -1.000000 0.000000
vn 0.000000 -1.000000 0.000000
vn 0.000000 -1.000000 0.000000
vn 0.000000 -1.000000 0.000000
vn -1.000000 0.000000 0.000000
vn -1.000000 0.000000 0.000000
vn -1.000000 0.000000 0.000000
vn 1.000000 0.000000 0.000000
vn 1.000000 0.000000 0.000000
vn 1.000000 0.000000 0.000000
vn 0.000000 0.707107 0.707107
vn 0.000000 0.707107 0.707107
vn 0.000000 0.707107 0.707107
vn 0.000000 0.707107 0.707107
s off
g pCube1
usemtl texturedFacets2
f 3/11/1 4/12/2 6/13/3 5/14/4
f 5/7/5 6/8/6 2/9/7 1/10/8
f 5/1/9 1/2/10 3/3/11
f 2/4/12 6/5/13 4/6/14
f 1/15/15 2/16/16 4/17/17 3/18/18
