# This file uses centimeters as units for non-parametric coordinates.

v 6.810136 3.509314 8.436014
v 5.861773 3.469517 8.555037
v 5.861057 2.511009 8.466833
v 6.798346 2.584054 8.350401
v -6.798313 2.582931 8.349874
v -5.860859 2.532368 8.463945
v -5.861704 3.471364 8.554804
v -6.810321 3.509278 8.437840
v 7.705295 3.529559 7.960702
v 7.450282 4.139641 8.050024
v 6.772210 4.414891 8.241787
v -6.772175 4.413522 8.241263
v -7.450248 4.139677 8.049497
v -7.705261 3.529607 7.960176
v 5.804533 4.346674 8.427857
v -5.804498 4.345472 8.427333
v 4.966571 3.441556 8.306597
v 4.983513 2.524310 8.219896
v -4.918156 2.523758 8.227756
v -4.966537 3.441597 8.306073
v 5.186735 4.088030 8.337702
v -5.186702 4.088068 8.337175
v 7.713247 2.635701 7.875526
v -7.713213 2.635732 7.875001
v 7.452607 1.953432 7.846275
v 6.837943 1.731418 7.905256
v -6.837908 1.733056 7.904728
v -7.452573 1.953472 7.845749
v 5.785886 1.699191 8.038220
v -5.785851 1.699233 8.037692
v 5.186467 1.854653 8.129984
v -5.186433 1.854693 8.129460
v 6.973117 5.597948 7.502234
v 5.595191 5.521800 7.681728
v -5.595191 5.521790 7.681728
v -6.973117 5.592428 7.502234
v 7.078207 0.752371 7.023232
v 5.665680 0.677834 7.279291
v -5.665680 0.684437 7.279291
v -7.078207 0.710000 7.023232
v 4.212831 2.344081 7.582071
v 4.107701 3.645790 7.654831
v -4.107701 3.645793 7.654831
v -4.212831 2.344094 7.582071
v 8.570485 3.693896 6.949117
v 8.530849 2.461887 6.791765
v -8.530849 2.461882 6.791765
v -8.570485 3.693902 6.949117
v 3.818094 2.148586 6.865990
v 3.687478 3.658781 6.964902
v -3.687478 3.658784 6.964902
v -3.818094 2.148604 6.865990
v 4.546755 4.825409 7.672779
v -4.546755 4.825404 7.672779
v 4.214520 5.150168 6.949868
v -4.214520 5.150159 6.949868
v 8.512835 2.346886 5.698475
v 8.599317 3.563172 5.744063
v -8.599317 3.563183 5.744063
v -8.512835 2.347352 5.698475
v 5.589246 0.264701 6.202377
v 7.171128 0.470960 5.994238
v -7.171128 0.423619 5.994238
v -5.589246 0.244868 6.202376
v 8.106451 1.346816 5.832807
v 8.063665 1.435525 6.744745
v -8.063665 1.389220 6.744745
v -8.106451 1.297957 5.832807
v 4.251349 1.116230 6.650521
v 4.626950 1.246196 7.363736
v -4.626950 1.225598 7.363736
v -4.251349 1.096294 6.650521
v 8.119474 5.016962 7.095380
v -8.119474 5.020221 7.095380
v 8.333679 4.944339 5.911133
v -8.333679 4.944320 5.911133
v 7.319918 6.138396 6.433767
v 5.224188 6.040232 6.881618
v -5.224188 6.040215 6.881618
v -7.319918 6.138378 6.433767
v 11.282263 3.613897 -0.331681
v 11.283047 4.369030 -0.305305
v 11.281949 4.349073 0.510996
v 11.280221 3.576341 0.520457
v -11.280221 3.576362 0.520457
v -11.281949 4.349110 0.510996
v -11.283047 4.369066 -0.305305
v -11.282263 3.633497 -0.331681
v 11.264845 5.182873 0.468139
v 11.270615 5.203557 -0.362706
v -11.270615 5.203530 -0.362706
v -11.264845 5.179231 0.468139
v 11.246498 4.977308 1.160872
v 11.265405 4.354089 1.281587
v -11.265405 4.377234 1.281587
v -11.246498 4.977286 1.160872
v 11.261863 3.582463 1.248703
v -11.261863 3.602155 1.248703
v 11.236272 2.975735 1.101851
v 11.257760 2.843556 0.471639
v -11.257760 2.843501 0.471639
v -11.236272 2.975735 1.101851
v 11.267817 2.876114 -0.377042
v -11.267817 2.896956 -0.377042
v 11.252687 3.007054 -1.054938
v 11.265521 3.637064 -1.131914
v -11.265521 3.656651 -1.131914
v -11.252687 3.027706 -1.054938
v 11.267961 4.407051 -1.105371
v -11.267961 4.410822 -1.105371
v 11.260379 5.040140 -0.993720
v -11.260379 5.040118 -0.993720
v 10.009522 4.765007 -2.792487
v 9.978315 3.342721 -2.767661
v -9.978315 3.365509 -2.767661
v -10.009522 4.764990 -2.792487
v 10.069060 6.045868 -2.012074
v -10.069060 6.045815 -2.012074
v 10.082523 6.970465 -0.727395
v -10.082523 6.970378 -0.727395
v 10.077708 6.979737 0.870692
v -10.077708 6.979650 0.870692
v 10.079511 5.853475 2.126956
v -10.079511 5.853428 2.126956
v 10.071724 4.710536 2.713437
v -10.071724 4.710520 2.713437
v 10.038320 3.304547 2.687134
v -10.038320 3.323955 2.687134
v 9.970114 2.173622 2.053239
v -9.970114 2.194814 2.053239
v 9.779854 1.451950 0.875405
v -9.779854 1.381623 0.875405
v 9.829327 1.487312 -0.932899
v -9.829327 1.441205 -0.932899
v 9.927688 2.219479 -2.153460
v -9.927688 2.240588 -2.153460
v 11.134558 4.587521 -1.931675
v 11.114341 3.504693 -1.978038
v 11.081208 2.537442 -1.616783
v 11.141321 2.040207 -0.574258
v 11.073983 2.024107 0.635758
v 11.028002 2.507894 1.592762
v 11.122949 3.422811 2.039159
v 11.138025 4.531542 2.085139
v 11.104649 5.397766 1.624195
v 11.150451 5.925135 0.625764
v 11.191748 5.942670 -0.498451
v 11.172029 5.455609 -1.447594
v -11.134558 4.587554 -1.931675
v -11.114341 3.524490 -1.978038
v -11.081208 2.558747 -1.616783
v -11.141321 2.062145 -0.574258
v -11.073983 2.046031 0.635758
v -11.028002 2.529208 1.592762
v -11.122949 3.422861 2.039159
v -11.138025 4.549284 2.085139
v -11.104649 5.402090 1.624195
v -11.150451 5.925089 0.625764
v -11.191748 5.942625 -0.498451
v -11.172029 5.451087 -1.447594
v 9.275724 3.403580 4.961103
v 9.277505 4.792603 5.000480
v -9.277505 4.789988 5.000480
v -9.275724 3.403550 4.961103
v 9.803474 4.775429 3.851140
v 9.815604 3.377756 3.701149
v -9.815604 3.374298 3.701149
v -9.803474 4.775413 3.851140
v 9.770164 2.166039 3.397803
v -9.770164 2.187348 3.397803
v 9.243286 2.193028 4.861928
v -9.243286 2.214391 4.861928
v 9.250544 5.900810 5.033727
v -9.250544 5.900767 5.033727
v 9.807944 5.889658 3.813887
v -9.807944 5.896059 3.813887
v 1.726588 2.295535 6.940707
v 1.614487 3.673227 7.019913
v -1.614487 3.673229 7.019913
v -1.726588 2.295545 6.940707
v -1.606570 5.083683 7.035065
v 1.606570 5.083687 7.035065
v -1.608034 6.118176 7.026000
v 1.608034 6.118184 7.026000
v -9.201217 7.000229 5.055435
v -7.144811 7.011434 6.435636
v 7.144811 7.011505 6.435636
v 9.201217 7.000302 5.055435
v -4.632595 7.058636 6.881616
v 4.632595 7.058663 6.881616
v -1.556657 7.071386 6.984489
v 1.556657 7.071400 6.984489
v -9.780564 6.981959 3.794705
v 9.780564 6.982037 3.794705
v 1.712816 1.178273 6.742186
v -1.712816 1.159103 6.742186
v 1.669956 0.225149 6.354071
v -1.669956 0.206883 6.354071
v 8.782531 0.378666 4.502700
v 9.143755 1.273026 4.681323
v -9.143755 1.227687 4.681323
v -8.782531 0.338406 4.502700
v -9.609447 1.248301 2.988150
v -9.229015 0.432299 2.600538
v 9.229015 0.472575 2.600538
v 9.609447 1.293562 2.988150
v -1.542938 -0.255169 5.726145
v -4.280484 -0.257045 5.655513
v 4.280484 -0.257082 5.655513
v 1.542938 -0.255192 5.726145
v -6.555799 -0.247031 5.539310
v 6.555799 -0.212978 5.539310
v -8.175279 -0.248667 4.221011
v 8.175279 -0.212977 4.221011
v -8.538093 -0.247848 2.452344
v 8.538093 -0.212977 2.452344
v -9.357513 0.516927 0.780887
v -8.690736 -0.247401 0.709802
v 8.690736 -0.212976 0.709802
v 9.357513 0.509808 0.780887
v -9.373243 0.542399 -0.907918
v 9.373243 0.582991 -0.907918
v -8.725374 -0.247552 -0.929399
v 8.725374 -0.212976 -0.929399
v -6.089128 0.512480 -6.261199
v -5.719543 -0.245795 -5.832202
v -7.888618 -0.248749 -4.797045
v -8.438073 0.383354 -5.198439
v 8.438073 0.423920 -5.198439
v 7.888618 -0.212978 -4.797045
v 5.719543 -0.212976 -5.832202
v 6.089128 0.532720 -6.261199
v -8.707863 -0.248401 -2.629729
v -9.268851 0.527337 -2.845785
v 9.268851 0.568314 -2.845785
v 8.707863 -0.212976 -2.629729
v -9.635839 1.393640 -3.120653
v 9.635839 1.390674 -3.120653
v -8.677939 1.374548 -5.386129
v 8.677939 1.420570 -5.386129
v -6.121934 1.455171 -6.524562
v 6.121934 1.479380 -6.524562
v -9.747099 2.379744 -3.634077
v 9.747099 2.358679 -3.634077
v -8.749082 2.385199 -5.494568
v 8.749082 2.385726 -5.494568
v -9.757120 4.744140 -4.001735
v -9.746733 3.504268 -3.952432
v 9.746733 3.504244 -3.952432
v 9.757120 4.744156 -4.001735
v -8.824538 4.760941 -5.516726
v -8.769947 3.532578 -5.548532
v 8.769947 3.549884 -5.548532
v 8.824538 4.758420 -5.516726
v -8.920746 5.867430 -5.417056
v -9.839837 5.863257 -3.698957
v 9.839837 5.856968 -3.698957
v 8.920746 5.861075 -5.417056
v -9.882575 6.971261 -3.364105
v 9.882575 6.971339 -3.364105
v -8.935450 6.985504 -5.371588
v 8.935450 6.996285 -5.371588
v -6.348590 7.001541 -6.640952
v -6.316488 5.885034 -6.673971
v 6.316488 5.885071 -6.673971
v 6.348590 7.001611 -6.640952
v -6.215154 4.794853 -6.696835
v 6.215154 4.791925 -6.696835
v -6.155458 3.660468 -6.694941
v 6.155458 3.660460 -6.694941
v -6.130548 2.535300 -6.651359
v 6.130548 2.555587 -6.651359
v -3.724114 7.006416 -6.934777
v -3.701469 5.908343 -6.966489
v 3.701469 5.916693 -6.966489
v 3.724114 7.006475 -6.934777
v -3.670004 4.820735 -6.973528
v 3.670004 4.820744 -6.973528
v -3.649060 3.714213 -6.961117
v 3.649060 3.712890 -6.961117
v -3.615152 2.624880 -6.913673
v 3.615152 2.643789 -6.913673
v -3.583170 1.605644 -6.788371
v 3.583170 1.605618 -6.788371
v -3.533789 0.678720 -6.529371
v 3.533789 0.678659 -6.529371
v -3.329520 -0.241463 -6.121706
v 3.329520 -0.256906 -6.121706
v -4.012520 9.659655 6.298291
v -1.347184 9.621370 6.367250
v 1.347184 9.621428 6.367250
v 4.012520 9.631224 6.298291
v -6.512147 9.625489 6.068570
v 6.512147 9.649981 6.068570
v -8.652256 9.567933 4.966991
v 8.652256 9.568076 4.966991
v -9.309509 9.507387 3.182900
v 9.309509 9.507546 3.182900
v -9.519739 9.459481 1.072301
v 9.519739 9.459654 1.072301
v -8.680261 9.492183 -5.103390
v -9.392691 9.465224 -3.057997
v 9.392691 9.465383 -3.057997
v 8.680261 9.492322 -5.103390
v -9.542336 9.447068 -0.953493
v 9.542336 9.447241 -0.953493
v -6.221814 9.500545 -6.290940
v 6.221814 9.500683 -6.290940
v -3.643559 9.466344 -6.551379
v 3.643559 9.466460 -6.551379
v 1.449624 8.257957 6.836052
v 4.320610 8.259821 6.761710
v 6.966897 8.244262 6.391851
v 9.035251 8.246975 5.116566
v 9.717393 8.246849 3.521211
v 9.943591 8.262325 1.019470
v 9.946353 8.262318 -0.917565
v 9.780828 8.262629 -3.251388
v 8.853037 8.246857 -5.343331
v 6.334953 8.261341 -6.559194
v 3.697339 8.238130 -6.840520
v -1.449624 8.257936 6.836052
v -4.320610 8.259782 6.761710
v -6.966897 8.261703 6.391851
v -9.035251 8.246867 5.116566
v -9.717393 8.246732 3.521211
v -9.943591 8.262279 1.019470
v -9.946353 8.245749 -0.917565
v -9.780828 8.246652 -3.251388
v -8.853037 8.246749 -5.343331
v -6.334953 8.243064 -6.559194
v -3.697339 8.238038 -6.840520
v 7.134983 11.001515 -3.835121
v 5.685347 11.091210 -4.294092
v -5.685347 11.091020 -4.294092
v -7.134983 11.001320 -3.835121
v 7.321515 11.026648 -2.613261
v -7.321515 11.026433 -2.613261
v 7.310162 11.029012 2.604365
v 7.496992 11.017372 0.888090
v -7.496992 11.017140 0.888090
v -7.310162 11.028796 2.604365
v 7.458894 11.055888 -0.884662
v -7.458894 11.023639 -0.884662
v 7.109544 11.016081 3.675499
v -7.109544 11.015882 3.675499
v 5.741612 11.132524 3.824168
v -5.741612 11.166286 3.824168
v 3.671257 11.193373 3.931901
v -3.671257 11.193206 3.931901
v 1.249939 11.204796 3.993804
v -1.249939 11.204733 3.993804
v -3.410559 11.116882 -4.591063
v 3.410559 11.153704 -4.591063
v -3.525356 10.499307 -5.828913
v -5.999284 10.533283 -5.517459
v -8.098416 10.475279 -4.494592
v -8.619984 10.434755 -2.843742
v -8.774116 10.415311 -0.878374
v -8.731747 10.429573 1.021776
v -8.454367 10.479186 2.920320
v -7.828801 10.552470 4.241323
v -6.028993 10.688532 4.909922
v -3.772296 10.663365 5.213596
v -1.273669 10.651692 5.333625
v 3.525356 10.499440 -5.828913
v 5.999284 10.533447 -5.517459
v 8.098416 10.475449 -4.494592
v 8.619984 10.434945 -2.843742
v 8.774116 10.415515 -0.878374
v 8.731747 10.429778 1.021776
v 8.454367 10.479378 2.920320
v 7.828801 10.552649 4.241323
v 6.028993 10.688611 4.909922
v 3.772296 10.663518 5.213596
v 1.273669 10.651754 5.333625
v 5.594988 11.292332 -2.730597
v -5.594988 11.292112 -2.730597
v 5.738913 11.288218 2.517054
v -5.738913 11.287994 2.517054
v 5.716438 11.334151 0.804222
v -5.716438 11.333912 0.804222
v 5.649212 11.341064 -0.989954
v -5.649212 11.340826 -0.989954
v -1.125690 11.150451 -4.704939
v 1.125690 11.112390 -4.704939
v -1.152461 10.468698 -5.938411
v 1.152461 10.468749 -5.938411
v -1.179621 9.438595 -6.624959
v 1.179621 9.438643 -6.624959
v 1.205497 8.257978 -6.897534
v -1.205495 8.234566 -6.897534
v 1.212845 7.005339 -6.994370
v -1.212847 7.005315 -6.994370
v 1.194393 5.929371 -7.026074
v -1.194393 5.938279 -7.026074
v 1.202128 4.840493 -7.031818
v -1.202128 4.840490 -7.031818
v 1.191408 3.747455 -7.018848
v -1.191408 3.747458 -7.018848
v 1.181329 2.693131 -6.971348
v -1.181329 2.675212 -6.971348
v -1.165187 1.651319 -6.849420
v 1.165187 1.651309 -6.849420
v -1.141568 0.736338 -6.592781
v 1.141568 0.736311 -6.592781
v 0.987777 -0.238115 -6.131073
v -1.071423 -0.238304 -6.164253
v -3.642108 11.456711 2.471928
v 3.642108 11.456884 2.471928
v -3.569753 11.543246 0.754543
v 3.569753 11.505044 0.754543
v -3.533223 11.502854 -1.066684
v 3.533223 11.503024 -1.066684
v -3.446306 11.434879 -2.885457
v 3.446306 11.473547 -2.885457
v 1.174799 11.546336 -1.096160
v 1.156405 11.465977 -2.971873
v -1.156405 11.465922 -2.971873
v -1.174799 11.546292 -1.096160
v 1.235093 11.539588 2.462184
v 1.200980 11.550257 0.735296
v -1.200980 11.550213 0.735296
v -1.235093 11.502573 2.462184
v -0.855640 -1.029302 -5.015747
v -0.654798 -1.364778 -3.482963
v -2.204370 -1.364779 -3.278054
v -2.746320 -1.054450 -4.840345
v 2.746320 -1.015371 -4.840345
v 2.204370 -1.364779 -3.278054
v 0.654798 -1.364778 -3.482963
v 0.855640 -1.029344 -5.015747
v -4.359748 -1.034860 -4.345807
v 4.359748 -1.015372 -4.345807
v -3.154994 -1.401085 -2.788573
v 3.097465 -1.364779 -2.887372
v -3.490849 -1.381247 -2.374728
v -5.645495 -1.037284 -3.531603
v 5.645495 -1.015372 -3.531603
v 3.602222 -1.364779 -2.356312
v -6.302822 -1.037372 -2.213351
v -3.735574 -1.364779 -1.668627
v 3.735574 -1.364779 -1.668627
v 6.302822 -1.015372 -2.213351
v -6.545697 -1.036994 -0.850748
v -6.655038 -1.037368 0.582015
v 6.655038 -1.015372 0.582015
v 6.545697 -1.015372 -0.850745
v -3.955318 -1.364779 -0.763996
v -4.111678 -1.364779 0.316342
v 4.111678 -1.364779 0.316342
v 3.955318 -1.364779 -0.763996
v -6.676218 -1.038837 2.112499
v -4.160133 -1.364779 1.407319
v 4.160133 -1.364779 1.407319
v 6.676218 -1.015372 2.112499
v -6.185866 -1.038782 3.251673
v 6.185866 -1.015372 3.251673
v -3.985380 -1.364779 2.359509
v 3.985380 -1.364779 2.359509
v -3.655463 -1.364779 2.888907
v -5.055737 -1.036936 4.216518
v 5.055737 -1.015372 4.216518
v 3.655463 -1.364779 2.888907
v -2.627273 -1.364779 3.449035
v -3.482222 -1.033259 4.687489
v 3.482222 -1.015371 4.687489
v 2.627273 -1.364779 3.449035
v -1.121684 -1.364779 3.648978
v -1.442308 -1.052573 4.697959
v 1.442308 -1.052616 4.697959
v 1.121684 -1.364779 3.648978
v 5.738683 -11.756201 1.030156
v 3.597355 -11.756200 1.095958
v 3.430822 -11.756202 -1.144980
v 5.791361 -11.756202 -1.130969
v -5.791361 -11.756202 -1.130879
v -3.430822 -11.756202 -1.144890
v -3.597355 -11.756200 1.096048
v -5.738683 -11.756201 1.030246
v 7.274119 -11.756202 -1.173961
v 7.299457 -11.756201 1.045431
v -7.299457 -11.756201 1.045521
v -7.274119 -11.756202 -1.173871
v 5.545949 -11.756202 -3.288282
v 6.522625 -11.756202 -2.565029
v -6.522625 -11.756202 -2.564939
v -5.545949 -11.756202 -3.288192
v 3.650852 -11.756202 -3.286316
v -3.650852 -11.756202 -3.286226
v 2.201969 -11.756201 -1.171288
v 2.653551 -11.756202 -2.358437
v -2.653551 -11.756202 -2.358347
v -2.201969 -11.756201 -1.171198
v 2.378818 -11.756201 1.078756
v -2.378818 -11.756201 1.078846
v 3.739288 -11.756199 3.184251
v 2.883313 -11.756200 2.397763
v -2.883313 -11.756200 2.397853
v -3.739288 -11.756199 3.184341
v 5.558433 -11.756200 3.184961
v -5.558433 -11.756200 3.185051
v 6.772707 -11.756200 2.255820
v -6.772707 -11.756200 2.255910
v -5.567386 -11.614009 -3.514207
v -3.589996 -11.663353 -3.550386
v 3.589996 -11.663353 -3.550476
v 5.567386 -11.614009 -3.514297
v -2.465702 -11.618909 -2.390160
v 2.465702 -11.618909 -2.390250
v -2.046358 -11.538710 -1.192335
v 2.046358 -11.538710 -1.192425
v -6.643196 -11.568603 -2.674863
v 6.643196 -11.568603 -2.674953
v -7.410781 -11.605692 -1.251208
v 7.410781 -11.605692 -1.251298
v -2.163249 -11.486627 1.101691
v 2.163249 -11.486627 1.101601
v -2.808194 -11.468044 2.487328
v 2.808194 -11.468044 2.487238
v -3.684639 -11.405159 3.308017
v 3.684639 -11.405159 3.307927
v -5.539635 -11.408230 3.398343
v 5.539635 -11.408230 3.398253
v -6.895130 -11.454945 2.351805
v 6.895130 -11.454945 2.351715
v -7.476630 -11.590339 1.064096
v 7.476630 -11.590339 1.064006
v -4.897073 -5.231176 -1.356716
v -4.180128 -5.288158 -1.266113
v 4.180128 -5.288158 -1.266176
v 4.897073 -5.231176 -1.356780
v -5.201471 -5.181254 -1.123666
v 5.201471 -5.181254 -1.123725
v -5.469072 -5.129793 -0.680995
v 5.469072 -5.129793 -0.681078
v -5.553445 -5.095203 0.254006
v 5.553445 -5.095203 0.253916
v -5.354091 -5.114053 0.879338
v 5.354091 -5.114053 0.879274
v -4.996188 -5.127919 1.233449
v 4.996188 -5.127919 1.233387
v -4.387924 -5.126246 1.232628
v 4.366670 -5.146918 1.241366
v -3.909145 -5.211849 0.871088
v 3.776437 -5.469285 0.944219
v -3.215905 -6.482664 0.609108
v 3.118636 -6.605588 0.553228
v -3.077399 -6.617301 -0.344852
v 3.077399 -6.617301 -0.344852
v -3.692530 -5.466615 -0.786117
v 3.692530 -5.466615 -0.786174
v -5.342075 -8.475616 -2.710804
v -3.739835 -8.475617 -2.604479
v -2.878405 -8.475617 -1.685001
v -2.509937 -8.475619 -0.754897
v -2.629557 -8.475618 0.949478
v -3.135949 -8.475616 1.821622
v -3.941192 -8.475615 2.516542
v -5.388408 -8.475615 2.610519
v -6.364135 -8.475615 1.759397
v -6.782786 -8.475616 0.695948
v -6.684419 -8.475616 -1.034378
v -6.135282 -8.475616 -2.086876
v 5.342075 -8.475616 -2.710894
v 3.739835 -8.475617 -2.604569
v 2.878405 -8.475617 -1.685091
v 2.509937 -8.475619 -0.754961
v 2.629557 -8.475618 0.949388
v 3.135949 -8.475616 1.821532
v 3.908822 -8.475616 2.507978
v 5.388408 -8.475615 2.610429
v 6.364135 -8.475615 1.759307
v 6.782786 -8.475616 0.695858
v 6.684419 -8.475616 -1.034468
v 6.135282 -8.475616 -2.086966
v -5.580713 -10.384646 -3.352157
v -3.541991 -10.384647 -3.264545
v -2.494856 -10.384647 -2.136742
v -2.110926 -10.384647 -0.947244
v -2.243818 -10.384646 1.139917
v -2.798601 -10.384645 2.278977
v -3.715863 -10.384645 3.099063
v -5.564276 -10.384645 3.260995
v -6.838717 -10.384645 2.188452
v -7.347251 -10.384646 0.914735
v -7.235729 -10.384646 -1.197190
v -6.535667 -10.384646 -2.549689
v 5.580713 -10.384646 -3.352247
v 3.541991 -10.384647 -3.264635
v 2.494856 -10.384647 -2.136832
v 2.110926 -10.384647 -0.947334
v 2.243818 -10.384646 1.139827
v 2.798601 -10.384645 2.278887
v 3.681285 -10.384645 3.087182
v 5.564276 -10.384645 3.260905
v 6.838717 -10.384645 2.188362
v 7.347251 -10.384646 0.914645
v 7.235729 -10.384646 -1.197280
v 6.535667 -10.384646 -2.549779
v -3.947636 -6.740013 -1.944592
v -5.128735 -6.666143 -2.054171
v -5.697964 -6.631704 -1.630849
v -6.117623 -6.603263 -0.872526
v -6.214653 -6.567234 0.479901
v -5.890744 -6.545190 1.336454
v -5.205682 -6.528591 1.951018
v -4.125134 -6.539292 1.910449
v -3.488577 -6.635809 1.363849
v -2.853266 -7.303055 0.758355
v -2.745067 -7.426500 -0.561871
v -3.275513 -6.881868 -1.235121
v 3.947636 -6.740013 -1.944682
v 5.128735 -6.666143 -2.054261
v 5.697964 -6.631704 -1.630939
v 6.117623 -6.603263 -0.872616
v 6.214653 -6.567234 0.479811
v 5.890744 -6.545190 1.336365
v 5.205682 -6.528591 1.950928
v 4.130554 -6.542449 1.914674
v 3.488577 -6.635809 1.363759
v 2.853266 -7.303055 0.758265
v 2.745066 -7.426502 -0.561962
v 3.275513 -6.881868 -1.235211
v 4.924021 -4.824700 0.322082
v -4.924021 -4.824700 0.322139
v 4.840900 -4.872095 -0.709257
v -4.840900 -4.872095 -0.709200
v 4.353257 -4.845759 0.385004
v -4.353257 -4.845759 0.385087
v 4.239017 -4.913639 -0.658783
v -4.239017 -4.913639 -0.658721
v 3.854931 -5.078474 -0.487424
v -3.854931 -5.078474 -0.487363
v 3.971141 -4.970899 0.352296
v -3.971141 -4.970899 0.352354
v 3.943994 -4.687542 -0.672851
v 3.982676 -4.845253 0.452418
v -4.018540 -4.721615 0.482738
v -3.918521 -4.796522 -0.649185
v 3.489678 -5.611418 -1.449787
v -3.419906 -5.655825 -1.597418
v 3.570042 -5.688623 1.473099
v -3.648018 -5.587822 1.486873
v 2.788524 -6.942308 1.031006
v -2.839196 -6.903680 0.851831
v 2.705184 -6.965514 -0.694222
v -2.598598 -7.007412 -1.026342
v 4.084228 -1.699690 -0.967136
v 4.304415 -1.699689 0.584313
v -4.304415 -1.699689 0.584313
v -4.084228 -1.699690 -0.967141
v 4.143296 -2.620792 -0.875586
v 4.305021 -2.620791 0.693826
v -4.145294 -2.620790 -0.970000
v -4.317164 -2.620790 0.658765
v 3.645416 -2.620790 -2.423986
v -3.539503 -2.620788 -2.595953
v 3.984352 -2.620791 2.552941
v -4.011221 -2.620790 2.531063
v 1.452389 -2.620786 -3.608584
v -1.481534 -2.620786 -3.604260
v 1.689730 -2.620789 3.760006
v -1.705356 -2.620789 3.759789
v 1.151701 -6.412934 2.693369
v -1.151701 -6.412933 2.693362
v 1.121156 -7.703819 1.160727
v -1.121156 -7.730170 1.160722
v -1.090609 -6.412933 -2.509162
v 1.090609 -6.412933 -2.509162
v -1.121153 -7.597612 -1.119490
v 1.121153 -7.626819 -1.119485
v 4.047075 -4.519138 -0.735921
v 4.142733 -4.519138 0.638535
v 3.776217 -4.519143 2.277930
v 1.370056 -4.955716 3.543946
v -1.419890 -4.955715 3.543946
v -3.828789 -4.519141 2.285079
v -4.178579 -4.519137 0.618352
v -4.048768 -4.519137 -0.841305
v -3.430640 -4.519140 -2.437938
v -1.158587 -4.955714 -3.375263
v 1.179121 -4.955715 -3.362790
v 3.588623 -4.519141 -2.152791
v 4.301517 -3.627466 0.676806
v 4.170477 -3.627466 -0.821887
v 3.683587 -3.627466 -2.331635
v 1.358098 -3.627465 -3.550764
v -1.359680 -3.627465 -3.554906
v -3.548794 -3.627465 -2.564413
v -4.171920 -3.627464 -0.923701
v -4.325511 -3.627464 0.648693
v -3.991665 -3.627466 2.450535
v -1.610311 -3.627467 3.715117
v 1.526891 -3.627467 3.718950
v 3.951656 -3.627467 2.458011
vt 0.941991 0.407511
vt 0.922189 0.407524
vt 0.921411 0.386791
vt 0.940992 0.387060
vt 0.912544 0.541098
vt 0.913561 0.520650
vt 0.933146 0.520400
vt 0.932351 0.541126
vt 0.960670 0.407160
vt 0.955841 0.420622
vt 0.941923 0.427163
vt 0.893870 0.540734
vt 0.912604 0.560752
vt 0.898690 0.554201
vt 0.921694 0.426545
vt 0.932833 0.560150
vt 0.903503 0.407709
vt 0.903126 0.387850
vt 0.952789 0.521514
vt 0.951036 0.541328
vt 0.908608 0.421498
vt 0.945922 0.555113
vt 0.960108 0.387393
vt 0.894444 0.520969
vt 0.941139 0.368592
vt 0.954131 0.372848
vt 0.900432 0.506428
vt 0.913426 0.502181
vt 0.919180 0.368824
vt 0.935385 0.502431
vt 0.906807 0.372716
vt 0.947756 0.506332
vt 0.947053 0.452572
vt 0.918265 0.452150
vt 0.936244 0.585756
vt 0.907456 0.586156
vt 0.915861 0.346838
vt 0.945331 0.346168
vt 0.909249 0.479754
vt 0.938718 0.480446
vt 0.885760 0.412885
vt 0.886914 0.384622
vt 0.967640 0.518252
vt 0.968776 0.546516
vt 0.977016 0.382903
vt 0.978839 0.409960
vt 0.875698 0.543520
vt 0.877540 0.516464
vt 0.877009 0.413536
vt 0.878529 0.380728
vt 0.895853 0.438017
vt 0.958666 0.571640
vt 0.889185 0.445342
vt 0.976548 0.380426
vt 0.979336 0.407094
vt 0.913938 0.337958
vt 0.947044 0.340008
vt 0.967240 0.358095
vt 0.966419 0.360048
vt 0.888151 0.493618
vt 0.886723 0.357560
vt 0.894657 0.360047
vt 0.959913 0.493671
vt 0.970493 0.439060
vt 0.884025 0.572627
vt 0.974901 0.437301
vt 0.954714 0.463959
vt 0.910944 0.463704
vt 0.815369 0.811430
vt 0.836950 0.812358
vt 0.836282 0.831500
vt 0.815608 0.831006
vt 0.544977 0.809463
vt 0.566355 0.808508
vt 0.566118 0.828659
vt 0.545639 0.829167
vt 0.837736 0.851740
vt 0.816694 0.851138
vt 0.565043 0.849382
vt 0.544198 0.850002
vt 0.796092 0.831225
vt 0.799149 0.846130
vt 0.585450 0.828885
vt 0.582422 0.844227
vt 0.796925 0.811581
vt 0.584625 0.808664
vt 0.800644 0.796582
vt 0.816605 0.793313
vt 0.580941 0.793225
vt 0.565130 0.789860
vt 0.838099 0.794118
vt 0.543839 0.790689
vt 0.857217 0.812930
vt 0.855268 0.797357
vt 0.524901 0.810053
vt 0.526832 0.794022
vt 0.856545 0.832533
vt 0.525567 0.830231
vt 0.853717 0.847688
vt 0.528368 0.845831
vt 0.898645 0.805652
vt 0.899274 0.840876
vt 0.877472 0.836904
vt 0.878646 0.809659
vt 0.504837 0.834730
vt 0.503673 0.806686
vt 0.865212 0.857879
vt 0.879508 0.872657
vt 0.516981 0.856321
vt 0.846972 0.895615
vt 0.841174 0.870071
vt 0.540793 0.868871
vt 0.806498 0.895845
vt 0.812702 0.869637
vt 0.568997 0.868424
vt 0.787415 0.856557
vt 0.774682 0.867881
vt 0.594045 0.854960
vt 0.759828 0.839524
vt 0.775741 0.835520
vt 0.605609 0.833305
vt 0.760494 0.804708
vt 0.776905 0.807635
vt 0.604456 0.804602
vt 0.788211 0.785008
vt 0.776549 0.776721
vt 0.593257 0.781311
vt 0.806379 0.757149
vt 0.812448 0.773034
vt 0.569248 0.768985
vt 0.852177 0.758022
vt 0.843094 0.773434
vt 0.538891 0.769397
vt 0.883089 0.777856
vt 0.869497 0.785740
vt 0.512736 0.782064
vt 0.483241 0.838818
vt 0.483864 0.802561
vt 0.499272 0.773949
vt 0.529894 0.753532
vt 0.575260 0.752634
vt 0.604809 0.772780
vt 0.620712 0.801589
vt 0.621372 0.837427
vt 0.606659 0.866617
vt 0.575142 0.895401
vt 0.535049 0.895165
vt 0.502820 0.871532
vt 0.372323 0.755326
vt 0.377156 0.726622
vt 0.391175 0.722626
vt 0.391932 0.751658
vt 0.018400 0.735246
vt 0.024649 0.763684
vt 0.004882 0.760962
vt 0.004200 0.731928
vt 0.734813 0.805954
vt 0.731014 0.841133
vt 0.701906 0.841494
vt 0.702903 0.806678
vt 0.649915 0.839083
vt 0.646152 0.802871
vt 0.677761 0.803617
vt 0.678749 0.839455
vt 0.742496 0.776536
vt 0.638541 0.772590
vt 0.705415 0.777206
vt 0.675273 0.773279
vt 0.374721 0.701172
vt 0.389890 0.698065
vt 0.019572 0.709709
vt 0.004267 0.707335
vt 0.391939 0.774650
vt 0.351785 0.780391
vt 0.046404 0.787732
vt 0.006014 0.783927
vt 0.731958 0.868774
vt 0.701063 0.869050
vt 0.679583 0.867819
vt 0.648980 0.867535
vt 0.161114 0.705655
vt 0.233146 0.703923
vt 0.231513 0.732419
vt 0.164157 0.734038
vt 0.117412 0.703682
vt 0.120908 0.734781
vt 0.276699 0.699853
vt 0.274747 0.731083
vt 0.165044 0.763137
vt 0.110677 0.765809
vt 0.286503 0.761582
vt 0.232068 0.761526
vt 0.165542 0.784487
vt 0.090070 0.784670
vt 0.308019 0.779431
vt 0.232628 0.782874
vt 0.050509 0.805895
vt 0.007606 0.806658
vt 0.391474 0.797430
vt 0.348584 0.798729
vt 0.102931 0.805388
vt 0.296199 0.800742
vt 0.167101 0.804137
vt 0.232044 0.802576
vt 0.680128 0.895909
vt 0.648499 0.895442
vt 0.732444 0.895885
vt 0.700514 0.896339
vt 0.232278 0.680460
vt 0.285199 0.677917
vt 0.107836 0.682181
vt 0.160820 0.682177
vt 0.230896 0.660801
vt 0.312672 0.659689
vt 0.079493 0.665294
vt 0.161227 0.662476
vt 0.345751 0.662185
vt 0.379317 0.659477
vt 0.387308 0.677706
vt 0.365708 0.679746
vt 0.012917 0.668285
vt 0.046577 0.669377
vt 0.027513 0.687875
vt 0.005838 0.686877
vt 0.670742 0.748087
vt 0.628264 0.748609
vt 0.618540 0.727748
vt 0.666261 0.725361
vt 0.752871 0.753239
vt 0.709989 0.752732
vt 0.714513 0.730654
vt 0.762688 0.732972
vt 0.106526 0.653848
vt 0.163630 0.652475
vt 0.228000 0.650928
vt 0.285104 0.649555
vt 0.059064 0.654989
vt 0.332567 0.648414
vt 0.025282 0.655801
vt 0.366348 0.647602
vt 0.614822 0.710328
vt 0.659194 0.710328
vt 0.721647 0.716049
vt 0.766441 0.716049
vt 0.571105 0.710328
vt 0.572889 0.729901
vt 0.810573 0.716049
vt 0.808773 0.735064
vt 0.530520 0.730553
vt 0.851544 0.735698
vt 0.529981 0.710328
vt 0.852088 0.716049
vt 0.221944 0.465207
vt 0.272400 0.462758
vt 0.280071 0.479267
vt 0.233526 0.478551
vt 0.533731 0.466776
vt 0.584085 0.470776
vt 0.572086 0.483757
vt 0.525540 0.483041
vt 0.481904 0.730180
vt 0.422881 0.726511
vt 0.432951 0.710328
vt 0.487324 0.710328
vt 0.960208 0.731771
vt 0.900624 0.735335
vt 0.895151 0.716049
vt 0.950042 0.716049
vt 0.475008 0.752322
vt 0.907585 0.756846
vt 0.418172 0.751836
vt 0.964961 0.756374
vt 0.217123 0.444530
vt 0.272006 0.443216
vt 0.534744 0.447256
vt 0.589559 0.450257
vt 0.462127 0.777500
vt 0.920588 0.781306
vt 0.415451 0.778189
vt 0.967708 0.781975
vt 0.452903 0.838284
vt 0.454140 0.806672
vt 0.928651 0.809646
vt 0.929900 0.840357
vt 0.414896 0.838650
vt 0.414098 0.807350
vt 0.969075 0.810304
vt 0.968269 0.840712
vt 0.460499 0.866700
vt 0.417396 0.866807
vt 0.965745 0.868067
vt 0.922232 0.867963
vt 0.468900 0.895171
vt 0.418537 0.895536
vt 0.964593 0.895976
vt 0.913751 0.895622
vt 0.213449 0.327570
vt 0.268966 0.328038
vt 0.269287 0.351272
vt 0.213394 0.350941
vt 0.541432 0.332227
vt 0.596937 0.333466
vt 0.596251 0.356827
vt 0.540375 0.355440
vt 0.271101 0.374028
vt 0.215096 0.373874
vt 0.593823 0.379697
vt 0.537840 0.378129
vt 0.272010 0.397561
vt 0.215864 0.399349
vt 0.592249 0.405136
vt 0.536187 0.401623
vt 0.272175 0.420841
vt 0.215936 0.423074
vt 0.591425 0.428847
vt 0.535284 0.424886
vt 0.325410 0.351615
vt 0.325287 0.328735
vt 0.484268 0.354058
vt 0.485117 0.331193
vt 0.325727 0.374258
vt 0.483234 0.376679
vt 0.325812 0.397276
vt 0.482420 0.399684
vt 0.326182 0.419828
vt 0.481335 0.422214
vt 0.326526 0.441455
vt 0.480307 0.443820
vt 0.327279 0.460792
vt 0.478941 0.463124
vt 0.331358 0.480056
vt 0.474253 0.482253
vt 0.169941 0.828581
vt 0.110053 0.830021
vt 0.284595 0.854743
vt 0.228995 0.855990
vt 0.230418 0.827127
vt 0.290306 0.825687
vt 0.054853 0.831347
vt 0.345506 0.824361
vt 0.336730 0.853233
vt 0.011708 0.832385
vt 0.381340 0.850881
vt 0.388651 0.823323
vt 0.681661 0.927768
vt 0.641637 0.927768
vt 0.702754 0.960106
vt 0.698965 0.927289
vt 0.739370 0.927289
vt 0.747938 0.958616
vt 0.578874 0.927768
vt 0.802730 0.927289
vt 0.801392 0.957452
vt 0.471728 0.927768
vt 0.419246 0.927768
vt 0.957801 0.958218
vt 0.905998 0.957567
vt 0.910896 0.927289
vt 0.963877 0.927289
vt 0.530278 0.927768
vt 0.851789 0.927289
vt 0.852699 0.957143
vt 0.215633 0.301381
vt 0.269668 0.302212
vt 0.595584 0.307223
vt 0.541549 0.306393
vt 0.539535 0.280189
vt 0.592286 0.281272
vt 0.326268 0.303082
vt 0.484949 0.305522
vt 0.484200 0.279916
vt 0.172791 0.857341
vt 0.117196 0.858768
vt 0.065048 0.859764
vt 0.020375 0.859558
vt 0.677909 0.961548
vt 0.633150 0.960015
vt 0.580200 0.958816
vt 0.529377 0.958498
vt 0.476580 0.958934
vt 0.425265 0.959605
vt 0.272510 0.276083
vt 0.219751 0.275544
vt 0.327827 0.277512
vt 0.380693 0.278814
vt 0.379740 0.303905
vt 0.379176 0.329541
vt 0.379216 0.351984
vt 0.378691 0.374656
vt 0.378561 0.397399
vt 0.378425 0.419598
vt 0.378435 0.440831
vt 0.378632 0.460427
vt 0.535101 0.258605
vt 0.580125 0.260606
vt 0.811593 0.515357
vt 0.819593 0.491165
vt 0.842353 0.495912
vt 0.824135 0.531076
vt 0.942382 0.982674
vt 0.900572 0.981689
vt 0.793747 0.540334
vt 0.789033 0.518904
vt 0.802672 0.981592
vt 0.754589 0.982805
vt 0.692420 0.520660
vt 0.724263 0.523116
vt 0.722212 0.543626
vt 0.686963 0.539738
vt 0.850796 0.981236
vt 0.757410 0.543620
vt 0.757074 0.521824
vt 0.721132 0.984625
vt 0.662288 0.529864
vt 0.672518 0.517735
vt 0.364670 0.871741
vt 0.327183 0.874933
vt 0.649289 0.500290
vt 0.669295 0.495124
vt 0.280116 0.876326
vt 0.666588 0.460858
vt 0.642891 0.463010
vt 0.227992 0.877451
vt 0.639809 0.421652
vt 0.664609 0.420759
vt 0.824310 0.453361
vt 0.847270 0.454802
vt 0.482005 0.258348
vt 0.277626 0.254646
vt 0.330705 0.256022
vt 0.232561 0.255262
vt 0.481955 0.983765
vt 0.440539 0.984778
vt 0.531262 0.983298
vt 0.578932 0.983665
vt 0.626562 0.984913
vt 0.659703 0.986787
vt 0.075658 0.880979
vt 0.038058 0.879592
vt 0.122739 0.880109
vt 0.174856 0.878728
vt 0.821965 0.340334
vt 0.815685 0.302751
vt 0.838229 0.297093
vt 0.844846 0.337971
vt 0.806688 0.278902
vt 0.818567 0.262692
vt 0.784000 0.276266
vt 0.787821 0.254664
vt 0.751377 0.252843
vt 0.751946 0.274634
vt 0.719108 0.274664
vt 0.716208 0.254253
vt 0.687394 0.278399
vt 0.681150 0.259557
vt 0.656905 0.270415
vt 0.667629 0.282123
vt 0.665347 0.304845
vt 0.645144 0.300488
vt 0.664064 0.339191
vt 0.640297 0.337995
vt 0.638934 0.379442
vt 0.663750 0.379336
vt 0.786766 0.304831
vt 0.790613 0.490251
vt 0.689550 0.304402
vt 0.693496 0.494592
vt 0.721273 0.304136
vt 0.725203 0.493581
vt 0.754517 0.304581
vt 0.758401 0.491798
vt 0.381616 0.257349
vt 0.825633 0.415458
vt 0.848481 0.415442
vt 0.847689 0.377249
vt 0.824859 0.378152
vt 0.431319 0.279592
vt 0.431077 0.258110
vt 0.431477 0.304700
vt 0.431228 0.330341
vt 0.430477 0.352772
vt 0.430283 0.375449
vt 0.429693 0.398185
vt 0.429125 0.420377
vt 0.428442 0.441600
vt 0.427625 0.461180
vt 0.424002 0.481480
vt 0.379814 0.480801
vt 0.693611 0.459831
vt 0.691107 0.339130
vt 0.725385 0.457991
vt 0.722931 0.339689
vt 0.759095 0.456707
vt 0.756665 0.339615
vt 0.792741 0.454589
vt 0.790372 0.340378
vt 0.758830 0.417617
vt 0.758022 0.378684
vt 0.792759 0.378289
vt 0.793554 0.416613
vt 0.692964 0.419942
vt 0.692115 0.379011
vt 0.724102 0.378932
vt 0.724927 0.418733
vt 0.343610 0.496831
vt 0.384182 0.497455
vt 0.388378 0.504742
vt 0.355126 0.504231
vt 0.420904 0.498020
vt 0.461476 0.498643
vt 0.449732 0.505686
vt 0.416480 0.505174
vt 0.308988 0.496299
vt 0.496098 0.499176
vt 0.334714 0.504668
vt 0.468897 0.505980
vt 0.327514 0.504147
vt 0.281398 0.495875
vt 0.523688 0.499600
vt 0.479728 0.506147
vt 0.511436 0.681060
vt 0.497770 0.689938
vt 0.464698 0.689938
vt 0.493721 0.680641
vt 0.884606 0.696241
vt 0.870810 0.687616
vt 0.888227 0.687616
vt 0.917993 0.696241
vt 0.567900 0.689938
vt 0.531955 0.689938
vt 0.813810 0.696241
vt 0.850096 0.696241
vt 0.561234 0.681060
vt 0.534131 0.681060
vt 0.820538 0.687616
vt 0.847899 0.687616
vt 0.588604 0.681060
vt 0.606296 0.689938
vt 0.775048 0.696241
vt 0.792908 0.687616
vt 0.634875 0.689938
vt 0.746197 0.696241
vt 0.612493 0.681060
vt 0.768792 0.687616
vt 0.066371 0.638286
vt 0.112094 0.629990
vt 0.118976 0.629824
vt 0.089945 0.637719
vt 0.278361 0.625993
vt 0.324441 0.632082
vt 0.300867 0.632649
vt 0.271479 0.626159
vt 0.140424 0.629309
vt 0.122768 0.636930
vt 0.268044 0.633438
vt 0.250032 0.626674
vt 0.171830 0.628554
vt 0.165320 0.635907
vt 0.218626 0.627429
vt 0.225492 0.634461
vt 0.955070 0.174088
vt 0.955169 0.203475
vt 0.927004 0.205107
vt 0.923990 0.174710
vt 0.929898 0.298595
vt 0.928921 0.269224
vt 0.960003 0.268742
vt 0.958104 0.299226
vt 0.974574 0.172992
vt 0.975721 0.203145
vt 0.909348 0.298995
vt 0.909390 0.268822
vt 0.951049 0.144855
vt 0.964171 0.154347
vt 0.931870 0.239867
vt 0.919104 0.249819
vt 0.926102 0.145535
vt 0.956825 0.239660
vt 0.907804 0.174776
vt 0.913314 0.158488
vt 0.970079 0.252151
vt 0.976182 0.268233
vt 0.910957 0.205293
vt 0.974148 0.298842
vt 0.929638 0.233437
vt 0.918082 0.223044
vt 0.956509 0.327631
vt 0.967678 0.316834
vt 0.953586 0.232820
vt 0.932555 0.327865
vt 0.969230 0.219775
vt 0.916443 0.315384
vt 0.661656 0.011271
vt 0.729874 0.013201
vt 0.730646 0.021390
vt 0.659465 0.019662
vt 0.499846 0.013201
vt 0.568064 0.011271
vt 0.570255 0.019662
vt 0.499074 0.021390
vt 0.625756 0.011800
vt 0.618994 0.021219
vt 0.603965 0.011800
vt 0.610727 0.021219
vt 0.133179 0.399083
vt 0.103727 0.396500
vt 0.103495 0.388678
vt 0.132698 0.390235
vt 0.399067 0.903252
vt 0.398097 0.875223
vt 0.407031 0.875722
vt 0.406974 0.903509
vt 0.769372 0.022981
vt 0.765032 0.014753
vt 0.460348 0.022981
vt 0.464688 0.014753
vt 0.485376 0.228568
vt 0.439865 0.231927
vt 0.442160 0.223199
vt 0.488765 0.220735
vt 0.789602 0.242570
vt 0.743108 0.240196
vt 0.739471 0.232400
vt 0.787059 0.233851
vt 0.045920 0.390530
vt 0.046734 0.382290
vt 0.401983 0.958261
vt 0.410376 0.957524
vt 0.010005 0.388020
vt 0.012553 0.382286
vt 0.402646 0.992423
vt 0.408585 0.990027
vt 0.143462 0.009396
vt 0.177337 0.008962
vt 0.180309 0.015380
vt 0.145625 0.017598
vt 0.189461 0.008962
vt 0.223335 0.009396
vt 0.221173 0.017598
vt 0.186488 0.015380
vt 0.071471 0.010389
vt 0.072215 0.017490
vt 0.295326 0.010389
vt 0.294582 0.017490
vt 0.023417 0.008883
vt 0.018573 0.015842
vt 0.343380 0.008883
vt 0.348225 0.015842
vt 0.367082 0.231063
vt 0.327311 0.227791
vt 0.323992 0.221378
vt 0.366299 0.224714
vt 0.904297 0.235938
vt 0.863812 0.240100
vt 0.864464 0.233704
vt 0.907534 0.229421
vt 0.731126 0.064454
vt 0.657737 0.064454
vt 0.557381 0.192125
vt 0.514865 0.194712
vt 0.507185 0.131327
vt 0.564861 0.131327
vt 0.765501 0.064454
vt 0.478632 0.131327
vt 0.494374 0.195919
vt 0.439287 0.183029
vt 0.483594 0.181849
vt 0.775160 0.069079
vt 0.800515 0.068256
vt 0.794806 0.130233
vt 0.759620 0.130069
vt 0.370101 0.184872
vt 0.845734 0.067274
vt 0.852653 0.130503
vt 0.328375 0.185983
vt 0.874373 0.066678
vt 0.888205 0.130669
vt 0.071240 0.053604
vt 0.020805 0.053604
vt 0.308477 0.189067
vt 0.281366 0.189652
vt 0.288598 0.120958
vt 0.327211 0.120958
vt 0.144389 0.053604
vt 0.238819 0.189163
vt 0.230044 0.120958
vt 0.180689 0.053604
vt 0.213414 0.185870
vt 0.199459 0.120958
vt 0.042144 0.428476
vt 0.012613 0.425953
vt 0.295469 0.961856
vt 0.296024 0.983502
vt 0.229956 0.977114
vt 0.253587 0.960182
vt 0.094671 0.435465
vt 0.255276 0.928256
vt 0.292043 0.921015
vt 0.123784 0.440679
vt 0.233388 0.914259
vt 0.289004 0.899455
vt 0.620043 0.064454
vt 0.595870 0.131327
vt 0.581576 0.187156
vt 0.672339 0.192125
vt 0.714855 0.194712
vt 0.706516 0.244979
vt 0.680708 0.242983
vt 0.663156 0.236732
vt 0.648144 0.187156
vt 0.076704 0.537451
vt 0.091299 0.559956
vt 0.075868 0.608122
vt 0.068706 0.565382
vt 0.043135 0.537337
vt 0.044232 0.567022
vt 0.033345 0.611624
vt 0.025208 0.559835
vt 0.128193 0.189275
vt 0.153384 0.185870
vt 0.136740 0.236109
vt 0.117793 0.239130
vt 0.085431 0.189652
vt 0.093722 0.239071
vt 0.058320 0.189067
vt 0.079558 0.239560
vt 0.380894 0.058759
vt 0.352814 0.058780
vt 0.366494 0.011244
vt 0.386964 0.010077
vt 0.425232 0.058765
vt 0.417625 0.010401
vt 0.450100 0.059040
vt 0.432172 0.011710
vt 0.735346 0.195919
vt 0.717474 0.246728
vt 0.498595 0.064454
vt 0.571983 0.064454
vt 0.609677 0.064454
vt 0.355567 0.883955
vt 0.359217 0.911674
vt 0.363450 0.961665
vt 0.364461 0.989757
vt 0.186108 0.053604
vt 0.221040 0.053604
vt 0.295558 0.053604
vt 0.345992 0.053604
vt 0.902244 0.193953
vt 0.859663 0.193754
vt 0.789059 0.193425
vt 0.743844 0.193214
vt 0.464219 0.064454
vt 0.722535 0.131327
vt 0.664859 0.131327
vt 0.633850 0.131327
vt 0.107148 0.505713
vt 0.084505 0.501452
vt 0.041592 0.495775
vt 0.018835 0.494062
vt 0.167339 0.120958
vt 0.135472 0.120958
vt 0.078200 0.120958
vt 0.039586 0.120958
vt 0.340705 0.122731
vt 0.375543 0.121803
vt 0.432227 0.120293
vt 0.466706 0.119375
vt 0.751089 0.131327
vt 0.523204 0.244979
vt 0.549012 0.242983
vt 0.512246 0.246728
vt 0.807154 0.019492
vt 0.792347 0.021127
vt 0.838417 0.018493
vt 0.859320 0.019215
vt 0.273076 0.239071
vt 0.287240 0.239560
vt 0.248163 0.238400
vt 0.224805 0.227027
vt 0.187609 0.970090
vt 0.228117 0.957231
vt 0.226661 0.935722
vt 0.183936 0.928694
vt 0.566564 0.236732
vt 0.655969 0.661184
vt 0.641950 0.638467
vt 0.679798 0.638432
vt 0.678551 0.673035
vt 0.200491 0.333996
vt 0.182012 0.359262
vt 0.154176 0.373451
vt 0.156406 0.337352
vt 0.675759 0.575124
vt 0.681295 0.599267
vt 0.643846 0.602923
vt 0.658350 0.585154
vt 0.157411 0.295255
vt 0.164527 0.267824
vt 0.184679 0.277586
vt 0.200794 0.295854
vt 0.714122 0.638443
vt 0.716202 0.670734
vt 0.115456 0.339593
vt 0.111088 0.373156
vt 0.718913 0.575573
vt 0.717437 0.598680
vt 0.114267 0.296911
vt 0.112899 0.271012
vt 0.749670 0.591627
vt 0.740969 0.603543
vt 0.085280 0.303183
vt 0.074413 0.289737
vt 0.736849 0.635633
vt 0.750478 0.657110
vt 0.079330 0.357983
vt 0.088151 0.337699
vt 0.819628 0.598596
vt 0.840895 0.595940
vt 0.845591 0.605591
vt 0.817092 0.601698
vt 0.541070 0.586694
vt 0.562136 0.589427
vt 0.565407 0.595762
vt 0.537011 0.593858
vt 0.848461 0.586359
vt 0.865268 0.582784
vt 0.533575 0.576831
vt 0.513222 0.572023
vt 0.804636 0.586293
vt 0.791242 0.580878
vt 0.575149 0.583305
vt 0.590600 0.573751
vt 0.802438 0.549930
vt 0.814539 0.558242
vt 0.574669 0.540315
vt 0.568579 0.551013
vt 0.837284 0.557953
vt 0.846132 0.549357
vt 0.544646 0.547592
vt 0.527549 0.537679
vt 0.847188 0.609748
vt 0.812378 0.609748
vt 0.529034 0.672550
vt 0.528963 0.649144
vt 0.569825 0.649144
vt 0.567957 0.672550
vt 0.853044 0.679348
vt 0.813751 0.679348
vt 0.810978 0.656610
vt 0.850725 0.656610
vt 0.568810 0.600907
vt 0.532191 0.600907
vt 0.883072 0.609748
vt 0.492136 0.600907
vt 0.770858 0.609748
vt 0.610626 0.600907
vt 0.889941 0.656610
vt 0.488171 0.649144
vt 0.763893 0.656610
vt 0.616797 0.649144
vt 0.433184 0.531396
vt 0.370225 0.530428
vt 0.480244 0.532119
vt 0.326064 0.529749
vt 0.277699 0.600138
vt 0.229834 0.601289
vt 0.110915 0.604147
vt 0.159014 0.602991
vt 0.216677 0.523496
vt 0.267492 0.537194
vt 0.272389 0.561164
vt 0.221975 0.553384
vt 0.116978 0.542888
vt 0.168629 0.524651
vt 0.163778 0.554783
vt 0.113752 0.564978
vt 0.215382 0.496938
vt 0.250551 0.511778
vt 0.133179 0.515395
vt 0.168595 0.497520
vt 0.377372 0.608929
vt 0.327636 0.592513
vt 0.327778 0.569018
vt 0.376391 0.578790
vt 0.475922 0.593875
vt 0.424179 0.609649
vt 0.426555 0.579562
vt 0.478403 0.571334
vt 0.376329 0.633403
vt 0.344818 0.620718
vt 0.458644 0.621602
vt 0.424436 0.634746
vt 0.939323 0.015673
vt 0.967611 0.012904
vt 0.971012 0.048523
vt 0.933540 0.049825
vt 0.968951 0.133477
vt 0.937902 0.129399
vt 0.935247 0.097825
vt 0.972719 0.096523
vt 0.811409 0.631759
vt 0.849365 0.631759
vt 0.766297 0.631759
vt 0.225924 0.580648
vt 0.276504 0.579432
vt 0.160483 0.582221
vt 0.110809 0.583415
vt 0.569572 0.623564
vt 0.614776 0.623564
vt 0.530124 0.623564
vt 0.488963 0.623564
vt 0.372511 0.551273
vt 0.325535 0.550551
vt 0.430831 0.552170
vt 0.480733 0.552937
vt 0.887602 0.631759
vt 0.965329 0.578971
vt 0.943558 0.597315
vt 0.899788 0.597538
vt 0.879618 0.570865
vt 0.875203 0.540654
vt 0.878009 0.513988
vt 0.887331 0.491664
vt 0.977526 0.547174
vt 0.976028 0.514364
vt 0.967849 0.491191
vt 0.940647 0.471567
vt 0.907539 0.473593
f 1/1 2/2 3/3 4/4
f 8/5 5/6 6/7 7/8
f 1/1 9/9 10/10 11/11
f 14/12 8/5 12/13 13/14
f 2/2 1/1 11/11 15/15
f 8/5 7/8 16/16 12/13
f 3/3 2/2 17/17 18/18
f 7/8 6/7 19/19 20/20
f 15/15 21/21 17/17 2/2
f 22/22 16/16 7/8 20/20
f 23/23 9/9 1/1 4/4
f 14/12 24/24 5/6 8/5
f 26/25 25/26 23/23 4/4
f 28/27 27/28 5/6 24/24
f 29/29 26/25 4/4 3/3
f 27/28 30/30 6/7 5/6
f 29/29 3/3 18/18 31/31
f 6/7 30/30 32/32 19/19
f 15/15 11/11 33/33 34/34
f 12/13 16/16 35/35 36/36
f 38/37 37/38 26/25 29/29
f 40/39 39/40 30/30 27/28
f 42/41 41/42 18/18 17/17
f 44/43 43/44 20/20 19/19
f 46/45 45/46 9/9 23/23
f 48/47 47/48 24/24 14/12
f 50/49 49/50 41/42 42/41
f 17/17 21/21 53/51 42/41
f 22/22 20/20 43/44 54/52
f 55/53 50/49 42/41 53/51
f 21/21 15/15 34/34 53/51
f 16/16 22/22 54/52 35/35
f 45/46 46/45 57/54 58/55
f 37/38 38/37 61/56 62/57
f 62/57 65/58 66/59 37/38
f 25/26 26/25 37/38 66/59
f 27/28 28/27 67/60 40/39
f 66/59 46/45 23/23 25/26
f 47/48 67/60 28/27 24/24
f 65/58 57/54 46/45 66/59
f 49/50 69/61 70/62 41/42
f 38/37 70/62 69/61 61/56
f 29/29 31/31 70/62 38/37
f 32/32 30/30 39/40 71/63
f 31/31 18/18 41/42 70/62
f 19/19 32/32 71/63 44/43
f 45/46 73/64 10/10 9/9
f 74/65 48/47 14/12 13/14
f 58/55 75/66 73/64 45/46
f 33/33 11/11 10/10 73/64
f 12/13 36/36 74/65 13/14
f 34/34 33/33 77/67 78/68
f 33/33 73/64 75/66 77/67
f 84/69 81/70 82/71 83/72
f 88/73 85/74 86/75 87/76
f 90/77 89/78 83/72 82/71
f 92/79 91/80 87/76 86/75
f 94/81 83/72 89/78 93/82
f 86/75 95/83 96/84 92/79
f 84/69 83/72 94/81 97/85
f 86/75 85/74 98/86 95/83
f 97/85 99/87 100/88 84/69
f 102/89 98/86 85/74 101/90
f 100/88 103/91 81/70 84/69
f 104/92 101/90 85/74 88/73
f 106/93 81/70 103/91 105/94
f 88/73 107/95 108/96 104/92
f 81/70 106/93 109/97 82/71
f 107/95 88/73 87/76 110/98
f 82/71 109/97 111/99 90/77
f 110/98 87/76 91/80 112/100
f 114/101 113/102 137/103 138/104
f 149/105 150/106 107/95 110/98
f 148/107 137/103 113/102 117/108
f 110/98 112/100 160/109 149/105
f 117/108 119/110 147/111 148/107
f 159/112 160/109 112/100 91/80
f 119/110 121/113 146/114 147/111
f 158/115 159/112 91/80 92/79
f 145/116 146/114 121/113 123/117
f 92/79 96/84 157/118 158/115
f 125/119 144/120 145/116 123/117
f 95/83 156/121 157/118 96/84
f 125/119 127/122 143/123 144/120
f 155/124 156/121 95/83 98/86
f 142/125 143/123 127/122 129/126
f 154/127 155/124 98/86 102/89
f 131/128 141/129 142/125 129/126
f 101/90 153/130 154/127 102/89
f 131/128 133/131 140/132 141/129
f 152/133 153/130 101/90 104/92
f 135/134 139/135 140/132 133/131
f 108/96 151/136 152/133 104/92
f 135/134 114/101 138/104 139/135
f 150/106 151/136 108/96 107/95
f 138/104 137/103 109/97 106/93
f 139/135 138/104 106/93 105/94
f 140/132 139/135 105/94 103/91
f 141/129 140/132 103/91 100/88
f 142/125 141/129 100/88 99/87
f 97/85 143/123 142/125 99/87
f 144/120 143/123 97/85 94/81
f 145/116 144/120 94/81 93/82
f 93/82 89/78 146/114 145/116
f 147/111 146/114 89/78 90/77
f 148/107 147/111 90/77 111/99
f 111/99 109/97 137/103 148/107
f 116/137 115/138 150/106 149/105
f 115/138 136/139 151/136 150/106
f 152/133 151/136 136/139 134/140
f 134/140 132/141 153/130 152/133
f 154/127 153/130 132/141 130/142
f 128/143 155/124 154/127 130/142
f 128/143 126/144 156/121 155/124
f 157/118 156/121 126/144 124/145
f 158/115 157/118 124/145 122/146
f 122/146 120/147 159/112 158/115
f 120/147 118/148 160/109 159/112
f 149/105 160/109 118/148 116/137
f 75/149 58/150 161/151 162/152
f 59/153 76/154 163/155 164/156
f 166/157 165/158 162/159 161/160
f 168/161 167/162 164/163 163/164
f 127/122 125/119 165/158 166/157
f 126/144 128/143 167/162 168/161
f 127/122 166/157 169/165 129/126
f 167/162 128/143 130/142 170/166
f 171/167 169/165 166/157 161/160
f 170/166 172/168 164/163 167/162
f 58/150 57/169 171/170 161/151
f 60/171 59/153 164/156 172/172
f 173/173 77/174 75/149 162/152
f 80/175 174/176 163/155 76/154
f 175/177 173/178 162/159 165/158
f 174/179 176/180 168/161 163/164
f 175/177 165/158 125/119 123/117
f 168/161 176/180 124/145 126/144
f 180/181 177/182 178/183 179/184
f 180/181 177/182 178/183 179/184
f 52/185 180/181 179/184 51/186
f 177/182 49/187 50/188 178/183
f 51/186 179/184 181/189 56/190
f 178/183 50/188 55/191 182/192
f 183/193 79/194 56/190 181/189
f 78/195 184/196 182/192 55/191
f 186/197 185/198 174/176 80/175
f 188/199 187/200 77/174 173/173
f 189/201 186/197 80/175 79/194
f 187/200 190/202 78/195 77/174
f 191/203 189/201 79/194 183/193
f 190/202 192/204 184/196 78/195
f 176/180 174/179 185/205 193/206
f 173/178 175/177 194/207 188/208
f 195/209 69/210 49/187 177/182
f 72/211 196/212 180/181 52/185
f 197/213 61/214 69/210 195/209
f 64/215 198/216 196/212 72/211
f 62/217 199/218 200/219 65/220
f 202/221 63/222 68/223 201/224
f 65/220 200/219 171/170 57/169
f 201/224 68/223 60/171 172/172
f 201/225 203/226 204/227 202/228
f 206/229 200/230 199/231 205/232
f 203/226 201/225 172/168 170/166
f 200/230 206/229 169/165 171/167
f 208/233 207/234 198/216 64/215
f 210/235 209/236 61/214 197/213
f 211/237 208/233 64/215 63/222
f 209/236 212/238 62/217 61/214
f 213/239 211/237 63/222 202/221
f 212/238 214/240 199/218 62/217
f 215/241 213/242 202/228 204/227
f 214/243 216/244 205/232 199/231
f 218/245 215/241 204/227 217/246
f 216/244 219/247 220/248 205/232
f 170/166 130/142 132/141 203/226
f 129/126 169/165 206/229 131/128
f 217/246 204/227 203/226 132/141
f 205/232 220/248 131/128 206/229
f 124/145 176/180 193/206 122/146
f 175/177 123/117 121/113 194/207
f 221/249 217/246 132/141 134/140
f 220/248 222/250 133/131 131/128
f 223/251 218/245 217/246 221/249
f 219/247 224/252 222/250 220/248
f 228/253 225/254 226/255 227/256
f 232/257 229/258 230/259 231/260
f 234/261 228/262 227/263 233/264
f 229/265 235/266 236/267 230/268
f 233/264 223/251 221/249 234/261
f 224/252 236/267 235/266 222/250
f 234/261 221/249 134/140 237/269
f 222/250 235/266 238/270 133/131
f 237/269 239/271 228/262 234/261
f 240/272 238/270 235/266 229/265
f 225/254 228/253 239/273 241/274
f 229/258 232/257 242/275 240/276
f 136/139 243/277 237/269 134/140
f 244/278 135/134 133/131 238/270
f 239/271 237/269 243/277 245/279
f 238/270 240/272 246/280 244/278
f 115/138 116/137 247/281 248/282
f 113/102 114/101 249/283 250/284
f 248/282 247/281 251/285 252/286
f 250/284 249/283 253/287 254/288
f 245/279 243/277 248/282 252/286
f 244/278 246/280 253/287 249/283
f 243/277 136/139 115/138 248/282
f 135/134 244/278 249/283 114/101
f 256/289 255/290 251/285 247/281
f 258/291 257/292 250/284 254/288
f 118/148 256/289 247/281 116/137
f 257/292 117/108 113/102 250/284
f 255/290 256/289 259/293 261/294
f 257/292 258/291 262/295 260/296
f 261/297 263/298 264/299 255/300
f 266/301 262/302 258/303 265/304
f 255/300 264/299 267/305 251/306
f 265/304 258/303 254/307 268/308
f 251/306 267/305 269/309 252/310
f 268/308 254/307 253/311 270/312
f 252/310 269/309 271/313 245/314
f 270/312 253/311 246/315 272/316
f 245/314 271/313 241/274 239/273
f 272/316 246/315 240/276 242/275
f 274/317 264/299 263/298 273/318
f 265/304 275/319 276/320 266/301
f 264/299 274/317 277/321 267/305
f 275/319 265/304 268/308 278/322
f 267/305 277/321 279/323 269/309
f 278/322 268/308 270/312 280/324
f 269/309 279/323 281/325 271/313
f 280/324 270/312 272/316 282/326
f 283/327 241/274 271/313 281/325
f 242/275 284/328 282/326 272/316
f 241/274 283/327 285/329 225/254
f 284/328 242/275 232/257 286/330
f 225/254 285/329 287/331 226/255
f 286/330 232/257 231/260 288/332
f 322/333 323/334 189/201 191/203
f 292/335 291/336 311/337 312/338
f 323/334 324/339 186/197 189/201
f 312/338 313/340 294/341 292/335
f 324/339 325/342 185/198 186/197
f 296/343 294/341 313/340 314/344
f 185/205 325/345 326/346 193/206
f 296/347 314/348 315/349 298/350
f 122/146 193/206 326/346 327/351
f 315/349 316/352 300/353 298/350
f 329/354 330/355 261/294 259/293
f 304/356 303/357 318/358 319/359
f 327/351 328/360 120/147 122/146
f 316/352 317/361 306/362 300/353
f 256/289 118/148 120/147 259/293
f 117/108 257/292 260/296 119/110
f 328/360 329/354 259/293 120/147
f 303/357 306/362 317/361 318/358
f 330/363 331/364 263/298 261/297
f 319/365 320/366 308/367 304/368
f 273/318 263/298 331/364 332/369
f 320/366 321/370 310/371 308/367
f 312/338 311/337 192/204 190/202
f 187/200 313/340 312/338 190/202
f 314/344 313/340 187/200 188/199
f 315/349 314/348 188/208 194/207
f 194/207 121/113 316/352 315/349
f 119/110 317/361 316/352 121/113
f 318/358 317/361 119/110 260/296
f 319/359 318/358 260/296 262/295
f 266/301 320/366 319/365 262/302
f 266/301 276/320 321/370 320/366
f 290/372 289/373 323/334 322/333
f 293/374 324/339 323/334 289/373
f 293/374 295/375 325/342 324/339
f 326/346 325/345 295/376 297/377
f 327/351 326/346 297/377 299/378
f 305/379 328/360 327/351 299/378
f 305/379 302/380 329/354 328/360
f 302/380 301/381 330/355 329/354
f 307/382 331/364 330/363 301/383
f 332/369 331/364 307/382 309/384
f 309/384 389/385 392/386 332/369
f 332/369 392/386 394/387 273/318
f 273/318 394/387 396/388 274/317
f 274/317 396/388 398/389 277/321
f 277/321 398/389 400/390 279/323
f 400/390 402/391 281/325 279/323
f 403/392 405/393 285/329 283/327
f 281/325 402/391 403/392 283/327
f 179/184 178/183 182/192 181/189
f 181/189 182/192 184/196 183/193
f 183/193 184/196 192/204 191/203
f 191/203 192/204 311/337 322/333
f 322/333 311/337 291/336 290/372
f 196/212 195/209 177/182 180/181
f 195/209 196/212 198/216 197/213
f 197/213 198/216 207/234 210/235
f 367/394 368/395 304/368 308/367
f 336/396 335/397 356/398 357/399
f 368/400 369/401 303/357 304/356
f 357/399 358/402 338/403 336/396
f 371/404 372/405 298/350 300/353
f 342/406 341/407 360/408 361/409
f 370/410 371/404 300/353 306/362
f 359/411 360/408 341/407 344/412
f 306/362 303/357 369/401 370/410
f 358/402 359/411 344/412 338/403
f 298/350 372/405 373/413 296/347
f 342/406 361/409 362/414 346/415
f 373/416 374/417 294/341 296/343
f 362/414 363/418 348/419 346/415
f 374/417 375/420 292/335 294/341
f 350/421 348/419 363/418 364/422
f 291/336 292/335 375/420 376/423
f 364/422 365/424 352/425 350/421
f 335/397 353/426 355/427 356/398
f 366/428 367/394 308/367 310/371
f 356/429 355/430 309/384 307/382
f 357/431 356/429 307/382 301/383
f 302/380 358/432 357/433 301/381
f 302/380 305/379 359/434 358/432
f 299/378 360/435 359/434 305/379
f 361/436 360/435 299/378 297/377
f 362/437 361/436 297/377 295/376
f 293/374 363/438 362/439 295/375
f 364/440 363/438 293/374 289/373
f 289/373 290/372 365/441 364/440
f 354/442 334/443 367/444 366/445
f 334/443 333/446 368/447 367/444
f 337/448 369/449 368/447 333/446
f 370/450 369/449 337/448 343/451
f 340/452 371/453 370/450 343/451
f 340/452 339/454 372/455 371/453
f 373/456 372/455 339/454 345/457
f 347/458 374/459 373/456 345/457
f 347/458 349/460 375/461 374/459
f 376/462 375/461 349/460 351/463
f 377/464 337/448 333/446 334/443
f 338/403 378/465 335/397 336/396
f 345/457 339/454 379/466 347/458
f 342/406 346/415 348/419 380/467
f 339/454 340/452 381/468 379/466
f 341/407 342/406 380/467 382/469
f 383/470 381/468 340/452 343/451
f 382/469 384/471 344/412 341/407
f 377/464 383/470 343/451 337/448
f 384/471 378/465 338/403 344/412
f 290/372 291/336 376/423 365/441
f 351/463 352/425 365/424 376/462
f 387/472 389/385 309/384 355/430
f 353/426 385/473 387/474 355/427
f 388/475 386/476 354/442 366/445
f 310/371 390/477 388/478 366/428
f 391/479 390/477 310/371 321/370
f 393/480 391/479 321/370 276/320
f 395/481 393/480 276/320 275/319
f 397/482 395/481 275/319 278/322
f 399/483 397/482 278/322 280/324
f 282/326 401/484 399/483 280/324
f 404/485 401/484 282/326 284/328
f 286/330 406/486 404/485 284/328
f 288/332 407/487 406/486 286/330
f 404/485 406/486 405/393 403/392
f 403/392 402/391 401/484 404/485
f 399/483 401/484 402/391 400/390
f 400/390 398/389 397/482 399/483
f 398/389 396/388 395/481 397/482
f 396/388 394/387 393/480 395/481
f 394/387 392/386 391/479 393/480
f 392/386 389/385 390/477 391/479
f 388/478 390/477 389/385 387/472
f 387/474 385/473 386/476 388/475
f 407/487 408/488 405/393 406/486
f 408/488 287/331 285/329 405/393
f 350/421 409/489 380/467 348/419
f 410/490 349/460 347/458 379/466
f 409/489 411/491 382/469 380/467
f 412/492 410/490 379/466 381/468
f 382/469 411/491 413/493 384/471
f 412/492 381/468 383/470 414/494
f 353/426 335/397 378/465 415/495
f 334/443 354/442 416/496 377/464
f 384/471 413/493 415/495 378/465
f 414/494 383/470 377/464 416/496
f 420/497 417/498 418/499 419/500
f 420/497 417/498 418/499 419/500
f 424/501 421/502 422/503 423/504
f 424/501 421/502 422/503 423/504
f 350/421 352/425 424/501 409/489
f 351/463 349/460 410/490 421/502
f 423/504 411/491 409/489 424/501
f 412/492 422/503 421/502 410/490
f 420/497 413/493 411/491 423/504
f 414/494 417/498 422/503 412/492
f 420/497 419/500 415/495 413/493
f 418/499 417/498 414/494 416/496
f 385/473 353/426 415/495 419/500
f 354/442 386/476 418/499 416/496
f 417/498 420/497 423/504 422/503
f 352/425 351/463 421/502 424/501
f 386/476 385/473 419/500 418/499
f 428/505 425/506 426/507 427/508
f 432/509 429/510 430/511 431/512
f 287/331 408/488 425/506 428/505
f 407/487 288/332 429/510 432/509
f 428/505 433/513 226/255 287/331
f 434/514 429/510 288/332 231/260
f 435/515 433/513 428/505 427/508
f 434/514 436/516 430/511 429/510
f 433/513 435/515 437/517 438/518
f 436/516 434/514 439/519 440/520
f 433/513 438/518 227/256 226/255
f 439/519 434/514 231/260 230/259
f 442/521 441/522 438/523 437/524
f 444/525 443/526 440/527 439/528
f 438/523 441/522 233/264 227/263
f 444/525 439/528 230/268 236/267
f 446/529 218/245 223/251 445/530
f 219/247 447/531 448/532 224/252
f 233/264 441/522 445/530 223/251
f 444/525 236/267 224/252 448/532
f 450/533 446/529 445/530 449/534
f 447/531 451/535 452/536 448/532
f 449/534 445/530 441/522 442/521
f 448/532 452/536 443/526 444/525
f 454/537 453/538 446/529 450/533
f 456/539 455/540 451/535 447/531
f 453/538 215/241 218/245 446/529
f 216/244 456/539 447/531 219/247
f 457/541 213/242 215/241 453/538
f 214/243 458/542 456/539 216/244
f 459/543 457/541 453/538 454/537
f 458/542 460/544 455/540 456/539
f 457/545 459/546 461/547 462/548
f 460/549 458/550 463/551 464/552
f 213/239 457/545 462/548 211/237
f 458/550 214/240 212/238 463/551
f 462/548 461/547 465/553 466/554
f 464/552 463/551 467/555 468/556
f 211/237 462/548 466/554 208/233
f 463/551 212/238 209/236 467/555
f 465/553 469/557 470/558 466/554
f 472/559 468/556 467/555 471/560
f 466/554 470/558 207/234 208/233
f 471/560 467/555 209/236 210/235
f 470/558 471/560 210/235 207/234
f 469/557 472/559 471/560 470/558
f 425/506 432/509 431/512 426/507
f 432/509 425/506 408/488 407/487
f 476/561 473/562 474/563 475/564
f 480/565 477/566 478/567 479/568
f 473/562 476/561 481/569 482/570
f 477/566 480/565 483/571 484/572
f 476/561 485/573 486/574 481/569
f 488/575 477/566 484/572 487/576
f 489/577 485/573 476/561 475/564
f 488/575 490/578 478/567 477/566
f 489/577 475/564 491/579 492/580
f 478/567 490/578 493/581 494/582
f 475/564 474/563 495/583 491/579
f 479/568 478/567 494/582 496/584
f 474/563 497/585 498/586 495/583
f 500/587 479/568 496/584 499/588
f 474/563 473/562 501/589 497/585
f 480/565 479/568 500/587 502/590
f 482/570 503/591 501/589 473/562
f 504/592 483/571 480/565 502/590
f 490/593 488/594 505/595 506/596
f 485/597 489/598 507/599 508/600
f 493/601 490/593 506/596 509/602
f 489/598 492/603 510/604 507/599
f 509/605 511/606 494/607 493/608
f 512/609 510/610 492/611 491/612
f 513/613 505/595 488/594 487/614
f 508/600 514/615 486/616 485/597
f 487/617 484/618 515/619 513/620
f 481/621 486/622 514/623 516/624
f 511/606 517/625 496/626 494/607
f 518/627 512/609 491/612 495/628
f 517/625 519/629 499/630 496/626
f 520/631 518/627 495/628 498/632
f 500/633 499/634 519/635 521/636
f 498/637 497/638 522/639 520/640
f 502/641 500/633 521/636 523/642
f 497/638 501/643 524/644 522/639
f 504/645 502/641 523/642 525/646
f 501/643 503/647 526/648 524/644
f 483/649 504/650 525/651 527/652
f 503/653 482/654 528/655 526/656
f 527/652 515/619 484/618 483/649
f 516/624 528/655 482/654 481/621
f 505/595 577/657 578/658 506/596
f 613/659 614/660 565/661 566/662
f 588/663 577/657 505/595 513/613
f 576/664 565/661 614/660 615/665
f 515/619 587/666 588/667 513/620
f 615/668 616/669 575/670 576/671
f 527/652 586/672 587/666 515/619
f 616/669 617/673 574/674 575/670
f 525/651 585/675 586/672 527/652
f 617/673 618/676 573/677 574/674
f 523/642 584/678 585/679 525/646
f 618/680 619/681 572/682 573/683
f 521/636 583/684 584/678 523/642
f 619/681 620/685 571/686 572/682
f 519/635 582/687 583/684 521/636
f 620/685 621/688 570/689 571/686
f 581/690 582/691 519/629 517/625
f 569/692 570/693 621/694 622/695
f 511/606 580/696 581/690 517/625
f 622/695 623/697 568/698 569/692
f 509/605 579/699 580/696 511/606
f 623/697 624/700 567/701 568/698
f 578/658 579/702 509/602 506/596
f 566/662 567/703 624/704 613/659
f 601/705 602/706 529/707 530/708
f 551/709 612/710 601/705 530/708
f 611/711 612/712 551/713 549/714
f 610/715 611/711 549/714 547/716
f 545/717 609/718 610/715 547/716
f 608/719 609/720 545/721 543/722
f 607/723 608/719 543/722 541/724
f 606/725 607/723 541/724 539/726
f 605/727 606/728 539/729 537/730
f 604/731 605/727 537/730 535/732
f 603/733 604/731 535/732 533/734
f 529/707 602/706 603/735 533/736
f 566/662 565/661 589/737 590/738
f 590/738 591/739 567/703 566/662
f 568/698 567/701 591/740 592/741
f 569/692 568/698 592/741 593/742
f 593/742 594/743 570/693 569/692
f 571/686 570/689 594/744 595/745
f 572/682 571/686 595/745 596/746
f 573/683 572/682 596/746 597/747
f 574/674 573/677 597/748 598/749
f 575/670 574/674 598/749 599/750
f 576/671 575/670 599/750 600/751
f 600/752 589/737 565/661 576/664
f 578/658 577/657 553/753 554/754
f 554/754 555/755 579/702 578/658
f 580/696 579/699 555/756 556/757
f 581/690 580/696 556/757 557/758
f 557/758 558/759 582/691 581/690
f 583/684 582/687 558/760 559/761
f 584/678 583/684 559/761 560/762
f 585/679 584/678 560/762 561/763
f 586/672 585/675 561/764 562/765
f 587/666 586/672 562/765 563/766
f 588/667 587/666 563/766 564/767
f 564/768 553/753 577/657 588/663
f 590/738 589/737 508/600 507/599
f 510/604 591/739 590/738 507/599
f 592/741 591/740 510/610 512/609
f 593/742 592/741 512/609 518/627
f 520/631 594/743 593/742 518/627
f 595/745 594/744 520/640 522/639
f 596/746 595/745 522/639 524/644
f 597/747 596/746 524/644 526/648
f 598/749 597/748 526/656 528/655
f 599/750 598/749 528/655 516/624
f 600/751 599/750 516/624 514/623
f 508/600 589/737 600/752 514/615
f 554/754 553/753 602/706 601/705
f 603/735 602/706 553/753 564/768
f 564/767 563/766 604/731 603/733
f 563/766 562/765 605/727 604/731
f 562/765 561/764 606/728 605/727
f 561/763 560/762 607/723 606/725
f 560/762 559/761 608/719 607/723
f 559/761 558/760 609/720 608/719
f 610/715 609/718 558/759 557/758
f 557/758 556/757 611/711 610/715
f 556/757 555/756 612/712 611/711
f 601/705 612/710 555/755 554/754
f 532/769 614/660 613/659 531/770
f 615/665 614/660 532/769 534/771
f 536/772 616/669 615/668 534/773
f 538/774 617/673 616/669 536/772
f 540/775 618/676 617/673 538/774
f 542/776 619/681 618/680 540/777
f 544/778 620/685 619/681 542/776
f 546/779 621/688 620/685 544/778
f 622/695 621/694 546/780 548/781
f 550/782 623/697 622/695 548/781
f 552/783 624/700 623/697 550/782
f 613/659 624/704 552/784 531/770
f 540/785 538/786 625/787 542/788
f 537/789 539/790 541/791 626/792
f 532/793 627/794 536/795 534/796
f 628/797 529/798 533/799 535/800
f 627/794 625/787 538/786 536/795
f 626/792 628/797 535/800 537/789
f 625/787 629/801 544/802 542/788
f 630/803 626/792 541/791 543/804
f 531/805 631/806 627/794 532/793
f 632/807 530/808 529/798 628/797
f 631/806 629/801 625/787 627/794
f 630/803 632/807 628/797 626/792
f 552/809 633/810 631/806 531/805
f 634/811 551/812 530/808 632/807
f 635/813 546/814 544/802 629/801
f 545/815 636/816 630/803 543/804
f 633/810 635/813 629/801 631/806
f 636/816 634/811 632/807 630/803
f 635/817 633/818 637/819 638/820
f 634/821 636/822 639/823 640/824
f 633/818 552/825 641/826 637/819
f 551/827 634/821 640/824 642/828
f 546/829 635/817 638/820 643/830
f 636/822 545/831 644/832 639/823
f 643/830 645/833 548/834 546/829
f 646/835 644/832 545/831 547/836
f 552/825 550/837 647/838 641/826
f 549/839 551/827 642/828 648/840
f 550 548 645 647
f 547 549 648 646
f 637/819 673/841 674/842 638/820
f 652/843 655/844 656/845 651/846
f 649/847 452/536 451/535 650/848
f 449/534 652/843 651/846 450/533
f 654/849 653/850 649/847 650/848
f 679/851 680/852 640/824 639/823
f 684/853 673/841 637/819 641/826
f 640/824 680/852 681/854 642/828
f 638/820 674/842 675/855 643/830
f 678/856 679/851 639/823 644/832
f 460/544 650/848 451/535 455/540
f 651/846 459/543 454/537 450/533
f 443/526 452/536 649/847 440/527
f 449/534 442/521 437/524 652/843
f 649/847 653/850 657/857 440/527
f 655/844 652/843 437/524 658/858
f 654/849 650/848 460/544 659/859
f 651/846 656/845 660/860 459/543
f 436/516 661/861 431/512 430/511
f 662/862 435/515 427/508 426/507
f 440/520 657/863 661/861 436/516
f 658/864 437/517 435/515 662/862
f 659/865 460/549 464/552 663/866
f 459/546 660/867 664/868 461/547
f 468/556 472/559 663/866 464/552
f 469/557 465/553 461/547 664/868
f 665/869 643/870 675/871 676/872
f 644/873 666/874 677/875 678/876
f 667/877 645/878 643/870 665/869
f 646/879 668/880 666/874 644/873
f 669/881 642/882 681/883 682/884
f 641/885 670/886 683/887 684/888
f 671/889 648/890 642/882 669/881
f 647/891 672/892 670/886 641/885
f 647/893 645/894 667/895 672/896
f 646/897 648/898 671/899 668/900
f 472/559 469/557 664/868 663/866
f 666/874 665/869 676/872 677/875
f 668/880 667/877 665/869 666/874
f 672/896 667/895 668/900 671/899
f 670/886 672/892 671/889 669/881
f 682/884 683/887 670/886 669/881
f 662/862 426/507 431/512 661/861
f 685/901 686/902 653/850 654/849
f 696/903 685/901 654/849 659/859
f 695/904 696/905 659/865 663/866
f 694/906 695/904 663/866 664/868
f 693/907 694/906 664/868 660/867
f 656/845 692/908 693/909 660/860
f 656/845 655/844 691/910 692/908
f 690/911 691/910 655/844 658/858
f 689/912 690/913 658/864 662/862
f 662/862 661/861 688/914 689/912
f 687/915 688/914 661/861 657/863
f 653/850 686/902 687/916 657/857
f 674/842 673/841 686/902 685/901
f 687/916 686/902 673/841 684/853
f 684/888 683/887 688/914 687/915
f 689/912 688/914 683/887 682/884
f 682/884 681/883 690/913 689/912
f 681/854 680/852 691/910 690/911
f 692/908 691/910 680/852 679/851
f 693/909 692/908 679/851 678/856
f 678/876 677/875 694/906 693/907
f 677/875 676/872 695/904 694/906
f 676/872 675/871 696/905 695/904
f 675/855 674/842 685/901 696/903
f 53/51 34/34 78/68 55/53
f 35/35 54/52 56/917 79/918
f 36/36 35/35 79/918 80/919
f 74/65 36/36 80/919 76/920
f 48/47 74/65 76/920 59/921
f 47/48 48/47 59/921 60/922
f 67/60 47/48 60/922 68/923
f 54/52 43/44 51/924 56/917
f 43/44 44/43 52/925 51/924
f 72/926 52/925 44/43 71/63
f 71/63 39/40 64/927 72/926
f 68/923 63/928 40/39 67/60
f 39/40 40/39 63/928 64/927
